<svg id="Layer_1" data-name="Layer 1" xmlns="http://www.w3.org/2000/svg" viewBox="0 0 3263.87 3988.72"><defs><style>.cls-1{opacity:0.3;}.cls-2,.cls-3{fill:#ba68c8;}.cls-10,.cls-11,.cls-12,.cls-2,.cls-4,.cls-5,.cls-6,.cls-7,.cls-8,.cls-9{fill-rule:evenodd;}.cls-4{fill:#4fc3f7;}.cls-5{fill:#ff8a65;}.cls-6{fill:#81c784;}.cls-7{fill:#ffb74d;}.cls-8{fill:#4db6ac;}.cls-9{fill:#7986cb;}.cls-10{fill:#e57373;}.cls-11{fill:#a1887f;}.cls-12{fill:#fff;}</style></defs><title>Central Chicago</title><g id="Map"><g class="cls-1"><g id="Far_Southwest" data-name="Far Southwest"><path class="cls-2" d="M1830.86,3012.41c8.5,4.9,22.8,13.74,36.72,21.76,11.53,6.65,25.11,17.79,35.36,20.4,18.36,4.67,43.51,0,66.64,0,64.11,0,137.64-3.42,201.27-2.72,5.25,54.61-11.55,122.1,5.44,168.63,8,21.86,21.9,34.72,28.56,53-56,5.6-120.32-2.41-175.43,2.72-6.37.59-9.8,0.64-15,4.08-53.4-6.24-111.63.47-167.27,1.36-56.06.9-110.07,2.11-163.19,2.72,2.56-58.75-3.44-126.7-2.72-183.59,50.66-1.47,97.58-6.69,149.6-6.8C1831.26,3071.68,1830.56,3039.11,1830.86,3012.41Z" transform="translate(-117.33 -248.99)"/><path class="cls-2" d="M2434.67,3046.41c0.16,6.64-.73,14.33,1.36,19,8.89,5.21,20.89,1,32.64,1.36-1.17,53,8.69,82.65,8.16,130.55,12.14,2.87,26.4,1.55,34-1.36,9.54,13.54,4.87,32.91,4.08,50.32-1.52,33.36.8,67.22,4.08,97.91-20.16,5.68-50.3,1.38-74.8,2.72-5.88.9-.44-9.53-4.08-10.88-10.65-.22-12.47,8.38-21.76,9.52,2-12,6.51-21.59,8.16-34-45-7.64-102.24-1.47-153.68-1.36-3.8,3.91-2.57,12.84-2.72,20.4-5.92,0-12.24-.45-16.32,1.36-11.6-17.7-24.48-36.16-36.72-55.76-11.17-17.89-26.44-37.43-34-57.12-18-46.83,3.45-107.3-4.08-167.27C2267,3052.12,2347.68,3048,2434.67,3046.41Z" transform="translate(-117.33 -248.99)"/><path class="cls-2" d="M2323.16,3654.3c-40.41.26-87.66,7.1-126.47,0-48.87,6-104.63,5.08-159.12,5.44-2.78-24.42-.59-53.81-2.72-78.88a263.56,263.56,0,0,1,36.72,1.36c4.07-21.38-.86-45.32,0-68,22.85-3,51.09-.59,76.16-1.36,1.63-74.17-5.08-151.76-4.08-229.83,23.25,1,42.31-2.12,65.28-1.36,15.52,15.76,24.4,38.16,39.44,54.4,19.59,49.88,36.2,100.84,57.12,151,13.54,32.45,23.16,65.53,39.44,95.2C2335.25,3603.84,2330.68,3630.55,2323.16,3654.3Z" transform="translate(-117.33 -248.99)"/><path class="cls-2" d="M2417,3315.67c-1.79,12.85-8.56,27.54-6.8,39.44,10.69,4.94,15.59-6.84,24.48-8.16,0,3.6-.76,8,2.72,8.16,25.53-1.37,52.05-1.18,81.6-1.36,2.33,75.22-.72,147,2.72,220.31-20,5-48,1.85-72.08,2.72-3.44,23.45-.46,52.09,0,76.16-38.29,1.6-78.28,1.51-118.31,1.36,8.17-23.56,11.2-52.26,23.12-72.08-37.42-75.91-62.62-164-97.92-242.07,4.12-3.14,14-.48,20.4-1.36,2.79-4.47.74-13.77,1.36-20.4C2325.09,3314.64,2368,3317.71,2417,3315.67Z" transform="translate(-117.33 -248.99)"/><path class="cls-2" d="M1901.57,3515.59c1.69,8.74-.74,21.59,9.52,21.76,0.86,17.28-1.75,38,1.36,53,20,4.12,54.91.87,78.88,0,6.94,1.5,1.22-9.66,8.16-8.16,7-3,19.33-.61,28.56-1.36-0.63,65.91,2.44,128.11,4.08,191.75-10.49-.07-21.42-0.56-28.56,2.72-3,4,1.59,9.49,0,16.32,1.11,5.64-8.38.68-9.52,4.08v19h-35.36c-5.15,7.48-2.64,27-1.36,36.72-11.12,2.94-25.23,2.88-39.44,2.72-2.28-10.74,2.52-26.43-1.36-38.08-65.77-1.08-149.18,1.67-220.31,4.08-2.81-21.21-.53-47.52-2.72-69.36,46.59-5.54,103.14-1.12,151-5.44,2.93-77.62-1.66-152.6-2.72-228.47C1861.78,3516.6,1880.36,3514.78,1901.57,3515.59Z" transform="translate(-117.33 -248.99)"/><path class="cls-2" d="M2449.63,3661.1c1.74,47.67.75,98.07,2.72,145.51-50.15.62-103-1.41-151,1.36-2.36,22.37-2.12,53.74,0,76.16-17.66,6-45-6-44.88,17.68-6.54-1.6,3.14-8,1.36-13.6-45.56-3.24-102.41-.79-144.15,0,8.17-17.3,3.7-50.7,2.72-74.8-23.64-3.69-51.72,0-76.16,0-0.9-22.21,1.81-48-1.36-68,10.2-3.85,29.16,1.05,39.44-2.72,1.48-22.06-2.77-49.68-2.72-74.8C2194.82,3662.39,2322.66,3665.93,2449.63,3661.1Z" transform="translate(-117.33 -248.99)"/><rect class="cls-3" x="1521.16" y="2842.51" width="28.54" height="21.68"/></g><g id="Far_Southeast" data-name="Far Southeast"><path class="cls-4" d="M2820.9,3060c8.18,0.54,10.86,3.79,19,1.36,17.13,16.42,34.2,32.89,53,47.6q0,4.76,0,9.52c4.3,1.59,6-.85,10.88,1.36,45.19,48.65,97,90.64,142.79,138.71-66.17,1.18-141.11,4.09-220.31,2.72-3.11-14.15-16.27-28.4-19-44.88-5.61-33.45,7.27-68.61,5.44-97.91,5.09,0.1,9.4-.57,12.24-2.72C2828.7,3097.53,2819.82,3075.9,2820.9,3060Z" transform="translate(-117.33 -248.99)"/><path class="cls-4" d="M3231.6,3107.6c36.34,9,66.71,24,95.2,40.8,0,22.69,2.48,42.86,4.08,63.92-22.06,4.69-49,4.48-73.44,6.8-2.13,16.34,20.65,9.52,34,9.52,17.29,0,30.82.48,42.16,1.36,1.73,23.65,5.24,45.53,8.16,68-19.13,9-34.89,21.32-54.4,29.92-5.18-10.68-6.57-25.16-15-32.64-8.58,8.9,5.51,24.71,1.36,42.16-29.89,9.1-45,33-46.24,70.71-28.54-2.74-36.09-26.47-53-40.8Q3041.22,3243.59,2912,3115.76c67-2.26,131.88-.73,208.07-4.08,12.81-.56,28.29,2,38.08,0,13.77-2.75,24.25-22.39,36.72-27.2,6.85-1,6.77,5,12.24,5.44,4.21-3.5,12.11-3.3,15-8.16C3229.11,3086.52,3228,3099.45,3231.6,3107.6Z" transform="translate(-117.33 -248.99)"/><path class="cls-4" d="M2804.58,3117.12c1.71,33-10.11,65.25-5.44,97.92,2.5,17.52,15.7,31.09,17.68,47.6-11.94-.16-23.8-0.23-34,1.36-5.43,9.08-6.54,22.48-8.16,35.36-17.13,10.07-9.49,44.9-19,62.56,5.19,11.23.75,23.5,0,38.08-3,2.47-9.42,5-8.16,12.24-15.32-7.34-30.65-14.68-38.08-29.92-16.82-1.31-26.39-9.87-31.28-23.12-23.53-13.09-53.46-21.84-88.4-16.32-21.25-19.55-33.71-47.89-54.4-68,2.64-14.27-6.38-19.32-9.52-32.64-6.68-28.33,5.79-53.75-20.4-57.12-6.16,4.44-14.28,5.9-21.76,5.44-0.21-24.54-.77-45.29-2.72-65.28C2591.39,3120.63,2693.22,3119.82,2804.58,3117.12Z" transform="translate(-117.33 -248.99)"/><path class="cls-4" d="M2523.07,3257.2c4.14,3.57,4.37,11,4.08,19,20.72,22.8,35.8,51.23,57.12,73.44,32.08-.65,60.36-1.23,84.32,13.6,8.88,11.51,16.63,24.17,35.36,25.84,11.82,18.55,32.46,28.29,54.4,36.72-22.21,125.57-44.92,250.64-65.28,378.06-78.7.47-159.25-.11-233.91,1.36,0.3-75.1-3.42-146.17-2.72-221.67,24.13-.34,50,1,72.08-1.36C2529.32,3474.43,2528,3368.74,2523.07,3257.2Z" transform="translate(-117.33 -248.99)"/><path class="cls-4" d="M3203,3409.51c-54.35,1.27-90.84,2-141.43,2.72-2.16-3.48,2.2-10.55-1.36-15-55,4.35-111,7.77-170,8.16-14-34.17-26.76-68.47-43.52-103.36-5.35-11.14-14.82-20.39-16.32-32.64,23.81,0.93,48.5-1.51,73.44-1.36,12.53,0.07,24.26,3.61,36.72,2.72,25.33-1.8,50.73-6,73.44-5.44,6.27,0.15,12.76,4.15,19,4.08,8.34-.09,13.54-5.41,21.76-2.72,6.71,2.2,14.68,13.82,21.76,20.4C3117.51,3325.16,3164.56,3370.06,3203,3409.51Z" transform="translate(-117.33 -248.99)"/><path class="cls-4" d="M2818.17,3270.8c28,42.72,48.05,93.38,66.64,145.51-39.21-1.11-86,1.94-129.2,1.36,19.66-30,5.46-66.91,17.68-106.07,1.64-3.34,7.33-2.64,8.16-6.8,2.36-10.33,2.73-22.65,5.44-32.64A188.94,188.94,0,0,1,2818.17,3270.8Z" transform="translate(-117.33 -248.99)"/><path class="cls-4" d="M3345.84,3492.47a183.94,183.94,0,0,0,15,29.92c-2.36,6.7-6.85,11.28-10.88,16.32,4,15.5,19.2,19.78,28.56,29.92,2.23,12.66-3.89,17-8.16,23.12,2.42,44.68.72,91.24,1.36,142.8-11.34-2.26-26.11-1.09-39.44-1.36-2.11,23.73-2.17,49.51-2.72,74.8-26.48-.19-45.1-0.06-72.07,0-5.32,2.84-.58,15.74-4.08,20.4h-29.92c0.16-39.19-1.36-82-1.36-125.12,0-34.55-2.13-64.88,8.16-83-1.85-4-9.4-2.39-15-2.72,3.84-14.95-.5-28.07,2.72-39.44,4.74-16.7,23.24-24.87,28.56-39.44,1.65-21.56-2-38.18-4.08-57.12-1-9.57-4.78-21.86-4.08-28.56,1-9.29,8.28-15.42,8.16-24.48s-7.44-18-2.72-27.2c5,0.92,9.89,1.9,16.32,1.36,11.81-12.55-2.18-21.7-10.88-28.56,23.89-23.25,58.6-35.68,87-54.4,16.2,25.5,25.78,57.64,42.16,83,0.83,10-4.7,14.57-6.8,23.12-4.15,16.94,8.18,32.42,5.44,42.16C3373.48,3480.93,3352.48,3480.16,3345.84,3492.47Z" transform="translate(-117.33 -248.99)"/><path class="cls-4" d="M3050.73,3405.43c5.54,0.81,1,11.71,5.44,13.6,54.79,2.47,109.78-1.33,171.36-1.36-3.42,39.31,19.71,76.65,9.52,119.68-2.88,12.16-23.09,21.94-27.2,38.08-4.16,16.3,2.47,29.27-2.72,46.24,2.42,3.47,7.24,4.55,13.6,4.08-10.84,18.65-6.8,53.74-6.8,89.76,0,56.25-1,121.19,1.36,175.43,0.5,11.34,2.52,22.91,1.36,34-2.36,22.55-12.94,43.71-13.6,62.56-1,27.42,12.58,59.38,13.6,84.32-15.48-12.82-35.21-19.67-47.6-35.36-17.72-22.45-23.89-53.36-40.8-77.52-12,3.84-14.87,16.86-24.48,23.12v93.84c-81.4.81-155.37,1.55-227.11-8.16-25.11-37.17-48.94-75.89-76.16-115.59-8.19-12-20.72-27.22-23.12-39.44-2.62-13.35.78-33.93,0-51.68-0.7-15.95-3.16-34.55-1.36-46.24,3.67-23.85,21.19-56.5,31.28-81.59,11.39-28.33,20.47-60.07,32.64-80.24,14.17-23.48,42.24-41.54,55.76-62.56v-13.6c4.9,0.48,6.55,2.08,10.88,0,6.91-35.49,3.09-74.9,1.36-114.24-1.05-23.91-1.09-36.68-13.6-49C2947.15,3411.56,3002.08,3411.64,3050.73,3405.43Z" transform="translate(-117.33 -248.99)"/><path class="cls-4" d="M2891.61,3423.11c1.32,5.48,5.27,8.32,8.16,12.24,1.19,46.57,6,87.55,0,131.92,0.47,6.24-8.26-2.11-10.88,2.72-2.68,3.67-.81,11.88-1.36,17.68-13.51,23.3-41.38,36.71-55.76,61.19-6.12,10.42-10,25.69-15,38.08-14.63,36.82-29.93,76.53-44.88,114.24-23.39-1.2-47.77-2.35-69.36,1.36,17.89-128.54,42.07-250.77,63.92-375.35C2808.88,3426.51,2849,3423.52,2891.61,3423.11Z" transform="translate(-117.33 -248.99)"/><path class="cls-4" d="M3373,3744.06c-0.45,165.22.14,326.44,0,486.86-140.54,1.1-271.54,1.23-412.07-1.36-16.43-59.73-51.29-108.27-77.52-153.67,69.85,9.77,147.92,9.91,225.75,6.8,5.22-28.33,1.69-65.4,2.72-97.91,6.65-2.87,7.1-11.94,15-13.6,19.64,50.39,46.47,92.09,96.56,112.88,3.76-33.93-12.56-62.14-12.24-93.84,0.19-18.55,9.95-37.51,12.24-57.12,3.61-30.9-2.66-61,0-96.56h36.72c4.48-3.23,2.18-13.23,2.72-20.4,26.22-1.49,48.77,1.68,73.44-1.36,4-22.28-1.73-54.31,4.08-74.8C3353.17,3739.45,3364.7,3740.15,3373,3744.06Z" transform="translate(-117.33 -248.99)"/><path class="cls-4" d="M2769.22,3810.7c2.89,36.89-6.1,70.52,1.36,106.07,2.41,11.5,14.12,26.24,23.12,39.44,24.75,36.29,51.3,76,73.44,111.52,32.82,52.64,67.4,98.63,85.68,161.83-97.76,1.87-194,.88-293.75,2.72,0.85-20.57-.22-29.66,1.36-51.68-5.36-6-18.3-4.37-28.56-5.44,27.95-114.4,39.93-244.75,62.56-364.47C2719.61,3809.52,2745.31,3805.91,2769.22,3810.7Z" transform="translate(-117.33 -248.99)"/><path class="cls-4" d="M2686.26,3812.06c-15.35,88.46-28.81,178.81-43.52,267.91-9.43-.09-5.08-14-8.16-20.4-40.09-24.3-67.77,21.24-93.84,36.72-40.31,0-81.91-1.22-117,4.08-1.5-16.31.58-41.74,0-57.12h40.8c0.83-25.41-.35-56.08-1.36-81.6-49.86-4.06-102.58.77-153.67,0-0.73-50.74-1.13-93.85-1.36-145.51C2440,3813.28,2569.94,3811.15,2686.26,3812.06Z" transform="translate(-117.33 -248.99)"/></g><g id="South"><path class="cls-5" d="M2731.14,2582.66c-0.28,53.41,2.66,107.86,2.72,164.55-26.35-1-49.33,1.44-74.8,1.36-4.75,17.75,2.68,39.86-1.36,57.12-22.33,4.65-45.06,1.49-66.64,5.44,0.07-11.86-2.33-21.24-1.36-34-4.62-3.54-17.14.82-21.76-2.72,0-61.44-3.62-124.28-4.08-189C2618.57,2585.52,2673.55,2584.11,2731.14,2582.66Z" transform="translate(-117.33 -248.99)"/><path class="cls-5" d="M2544.83,1997.89c3.58,18.63.27,44.15,9.52,57.12-12.6,95.09-1.61,194.07,0,293.75-20.27,6.87-41.42-3.36-49-17.68,0-29.9.61-60.45-2.72-87,1.9-2.63,6.46-2.61,6.8-6.8-2.89-33.55-3.27-61.19-4.08-96.56-2.36-3.53-9-2.75-15-2.72,1-11.88-.32-21.45-5.44-27.2-7.08,0-14.17-3.12-20.4,0,2.48-17.9-5.43-25.39-13.6-32.64,18.07-10.13,20.13-35.05,34-49,7.69-7.71,18.3-9.93,24.48-19-0.52-6,3.89-7,4.08-12.24C2523.19,2001.65,2533.32,1996.54,2544.83,1997.89Z" transform="translate(-117.33 -248.99)"/><path class="cls-5" d="M2455.07,2091.72c1.75,10.76-.69,17.34,2.72,25.84,5,2.19,14.56-1.35,23.12,0,2.94,6.58.62,18.41,1.36,27.2,2.87,5.07,8-.13,15,1.36,0.63,26.85,1.66,55.07,4.08,84.32,1.46,6.44-6.83,3.15-6.8,8.16,7.78,27.67-4.78,70,2.72,93.84,2.7,8.57,12.81,9.79,12.24,17.68-36.7-4.13-72.7-.22-107.44,1.36-12.08.55-35.7,3.63-49,0-25.57-7-8.22-51.92-13.6-76.16-4.22-19-32.74-36.37-44.88-61.2a91.39,91.39,0,0,1-1.36-76.16c12.72-9,26-17.48,35.36-29.92,37.33-2.23,73.73-16.85,111.52-23.12C2447,2085.25,2448.81,2090.74,2455.07,2091.72Z" transform="translate(-117.33 -248.99)"/><path class="cls-5" d="M2710.74,2129.8c11.71,35.43,24.21,70.08,36.72,104.72-1.85,3.59-1.61,9.27-2.72,13.6,2.42,7.56,14.63,5.32,13.6,16.32-13.25,7.51-42.35,3.65-58.48,4.08-5.61,25.67-9.82,52.74-16.32,77.52-43.2,1.32-75.37,2.08-121,2.72-2.64-25.92,5.87-63-5.44-80.24,2.34-49.5-3.91-97.61-1.36-142.8,30.92-2.55,64.42.83,93.84-1.36C2661.75,2134.37,2690.27,2128.06,2710.74,2129.8Z" transform="translate(-117.33 -248.99)"/><path class="cls-5" d="M2839.93,2419.47c-34.54.36-70.85-1-103.36,1.36-3.93-24.07,4.54-49.29-1.36-72.08-11.49-3.46-27.24-2.68-42.16-2.72,2.13-24.61,10-43.52,12.24-68,16-2.54,37.5.32,53-2.72,12.06,9.7,15.65,27.86,20.4,44.88,4.32,5.2,10.87,8.16,15,13.6a29.36,29.36,0,0,1,1.36,12.24C2814.42,2366.1,2825.45,2394.52,2839.93,2419.47Z" transform="translate(-117.33 -248.99)"/><path class="cls-5" d="M2729.78,2355.55c-4.11,69.79,2.08,143.29,0,219-56.95,2.07-107.63,2-165.91,2.72-4.57-73.12,5.3-152.83-5.44-220.31C2620.8,2359,2668.62,2349.48,2729.78,2355.55Z" transform="translate(-117.33 -248.99)"/><path class="cls-5" d="M2550.27,2358.28c10.65,88,1.89,197.7,6.8,296.47-17.14-.51-26.38,1.55-44.88,1.36-0.72-56.15-1.46-114.11-5.44-164.55-2-25.45,8.36-50.36,6.8-72.08-0.44-6.17-4.08-11.08-5.44-17.68-2.66-12.86-.63-26.15-1.36-39.44-0.94-1.1-2.11-3.72,0-4.08h43.52Z" transform="translate(-117.33 -248.99)"/><path class="cls-5" d="M2845.38,2427.63c6.48,25.7,22.28,42.08,42.16,54.4v12.24c15.44,18.21,27.65,44.14,43.52,61.2,2.9,3.11,10.64,5.08,9.52,10.88-0.95,4.7-7,5.15-9.52,5.44-21.1,2.44-53.31.26-80.23,0-12.5-.12-25.1,1.17-38.08,1.36-24,.36-47.55-0.33-74.8,1.36,0.32-48.39,0-103.29-1.36-145.51C2770.84,2426.53,2809.06,2428,2845.38,2427.63Z" transform="translate(-117.33 -248.99)"/><path class="cls-5" d="M2939.21,2578.59c-5.07,32.72,8.66,46.64,24.48,58.48,7.51-.25,15.69-1.18,16.32,5.44-6.38,9.94-24.06,8.57-28.56,20.4,5.53,19,12.14,36.82,19,54.4,0.64,6.08-7.91,3-9.52,6.8,3.17,5.44,9.36,7.86,6.8,19-72,3.39-144.83.67-225.75,2.72-0.68-54.63-.57-110-2.72-163.2C2806.92,2579.19,2880.26,2582.05,2939.21,2578.59Z" transform="translate(-117.33 -248.99)"/><path class="cls-5" d="M3023.53,2794.81c-11.71,9.14-26.89,14.81-34,28.56,1.57,5.23,11.92,1.69,17.68,2.72,9.71,19.76,29,30,40.79,47.6-100.84,3.76-206.27,3.71-310.07,6.8-3.48,20.79-.38,46.56,0,68-3.86,1.68-12.06-6.84-17.68-12.24-16.48-15.83-35.41-36.75-51.68-53-3.32-45.67-.82-81.82-2.72-126.47,72.89-2.66,165.78-6,240.71-2.72,19.37,0.85,42.23-5.78,59.84-2.72C2986.59,2754.81,3005.34,2787.77,3023.53,2794.81Z" transform="translate(-117.33 -248.99)"/><path class="cls-5" d="M3077.93,2925.37c7.93-.23,13,2.37,21.76,1.36,0.09,8-4.25,22.78-8.16,31.28,9.57,7.68,14.39,22.65,24.48,34,3.91,4.4,13.52,8.25,20.4,15,15.29,14.91,28.5,36,61.2,34,14.79-.89,20.28-10.65,35.36-13.6,6.28,5.5,9.84,13.74,16.32,19-9.56,14.92-24.91,24-39.44,34-6.86,1-6.77-5-12.24-5.44-15.25,7.42-27.2,18.13-39.44,28.56-83.71-.21-171.83,1.54-257,6.8-19.87-27.27-50.35-43.95-70.72-70.72,3-8.77.57-23,1.36-34-0.09-5.08,8.55-1.43,9.52-5.44-3.11-11.88,4-20.18,0-32.64,19.7-15.69.73-55.52,9.52-80.24,64.55-6.89,134,.84,202.63-8.16C3063.54,2892.62,3068.25,2911.48,3077.93,2925.37Z" transform="translate(-117.33 -248.99)"/><path id="Greater_Grand_Crossing" data-name="Greater Grand Crossing" class="cls-5" d="M2578.82,2782.58c10,4.46-.88,29.9,6.8,36.72,25.66-2.44,44.16-3.77,72.08-4.08,4.42,26.76-3.85,48.48,2.72,69.36,4.53,14.39,29,30.88,39.44,42.16,14.41,15.61,28.68,28.82,43.52,38.08,6.49-21.33-1.53-50.81,0-76.16,36.34-.43,64.77-0.45,99.28-2.72-6,22.44,3.26,44.46-1.36,68,0,5-8.46,1.52-8.16,6.8,0.93,17.72,5,32.16-9.52,36.72-1.16,13.35,2.7,31.71-2.72,40.8,0.5,8.57,9.78,8.34,10.88,16.32-4-2.36-9.49-3.21-16.32-2.72-10,18.89,6.52,37.69,1.36,58.48-111.13-1.66-229.89,5.49-340,5.44-1.78-26.26,1.68-47.27,4.08-69.35h25.84c4.19-7.14,1.69-21,10.88-23.12,2-26,.25-46-1.36-69.35,6.91-4,12.18-9.58,9.52-23.12a23.76,23.76,0,0,0,17.68-1.36c5-11.3-4.92-37.55,10.88-38.08-2.34-23.75.45-44.24,0-69.36,0.2-5.24,7.57-3.31,9.52-6.8-0.3-10.58.95-22.71-1.36-31.28C2568.42,2784,2574.74,2784.39,2578.82,2782.58Z" transform="translate(-117.33 -248.99)"/></g><g id="Southwest"><path class="cls-6" d="M2278.28,2195.08H2281c8.41,35.1,33,54.06,50.32,80.24,1.38,28.35-4.88,63,5.44,77.52-76.14,2.29-148.6-2.6-221.67,5.44,2.48-12.16-8.4-16.32,0-23.12-16-19.85-9.69-61.93-10.88-96.56,18-3.84,40.42-23.2,61.2-25.84,9.36-1.19,19.81,2.7,29.92,2.72,36.94,0.08,63.93.26,81.59-20.4h1.36Z" transform="translate(-117.33 -248.99)"/><path class="cls-6" d="M2094.68,2241.32c1.16-.25,1.28.53,1.36,1.36,1.48,30.71-4.83,69.2,8.16,88.4,3.3,5.4-2.85,5.15-2.72,9.52,0.18,6.35,10.8,11.47,6.8,23.12-0.16,5.6,10.64.24,12.24,4.08-0.82,60.85,3.67,123-1.36,182.23-31.56-1.1-63.67-1.45-96.56,0-42.22,1.86-90.25-1.92-125.12,5.44-2.41-75.56-2.06-153.89-4.08-229.83C1957.74,2294.77,2030.07,2271.9,2094.68,2241.32Z" transform="translate(-117.33 -248.99)"/><path class="cls-6" d="M1882.53,2328.36c5.15,35.31,5.44,100.75,5.44,152.31,0,39.78,3.72,64.93-17.68,81.6-14.76,11.5-33.16,12.68-47.6,23.12-4.22,3.05-5.39,8.95-9.52,12.24-10.14,8.09-25.58,9.22-35.36,19-2.41,2.58-1,9-1.36,13.6-20.14,1-39.61,2.86-55.76,1.36-6,3.23,3.42,15.86-9.52,13.6-7.63-72.14-3.62-159-6.8-236.63C1763,2381,1823.28,2355.23,1882.53,2328.36Z" transform="translate(-117.33 -248.99)"/><path class="cls-6" d="M2498.59,2358.28c2.54,20.12-2.7,48,6.8,61.19-13.14,71.57,1.21,156.45-1.36,238-112.4.18-220,2.11-331.83,4.08-6.84-35.06-3.53-78.86-6.8-114.24-11.27-3.79-24.19.71-36.72,0,2.31-52.44.38-122.59,0-183.59C2252,2361.07,2369.34,2359.23,2498.59,2358.28Z" transform="translate(-117.33 -248.99)"/><path class="cls-6" d="M1694.86,2371.87c3,124.52,6.57,241.6,6.8,374-159.42,2-336.4,9.74-490.94,12.24-1.62-41.45-1.44-84.69-2.72-126.47,11.11-7.6,22.9-19.74,36.72-21.76,7.22-1.05,15.76,1.38,23.12,1.36,100.11-.32,221.57-8.39,322.31-9.52,2.78-44.06,1.95-96.22-1.36-138.71,20.61-9.77,43.59-17.15,63.92-27.2v-63.92C1669.32,2372.25,1679.8,2370.34,1694.86,2371.87Z" transform="translate(-117.33 -248.99)"/><path class="cls-6" d="M1888,2550c6,60.21,1,131.37,4.08,194.47-63.94.35-118,.45-182.23,1.36,1-32.26-2.24-60.32-1.36-92.48,5.79-.1,9.51-2.27,16.32-1.36,4.11-2.86.93-10,2.72-12.24,20.16,1.12,36.27-1.82,54.4-2.72,4-1.85,2.39-9.4,2.72-15,9.65-10.15,24.84-10.43,35.36-20.4,1.83-1.74,3-6.25,5.44-8.16C1845.16,2577.92,1878.74,2576.42,1888,2550Z" transform="translate(-117.33 -248.99)"/><path class="cls-6" d="M2158.6,2554.1c-0.33,63,6.62,119.08,2.72,185-78.25-.34-170.39,5.2-261.11,4.08-0.66-60.85-2.45-120.41-1.36-179.52C1978.87,2553.7,2071.77,2560,2158.6,2554.1Z" transform="translate(-117.33 -248.99)"/><path class="cls-6" d="M2558.42,2661.54c0.6,50.1,2.59,98-2.72,146.87-0.78,5.11-9,2.82-9.52,8.16,4.86,22.94-5.2,45.15,0,68-12.42,3.9-8.57,24.06-9.52,39.44h-16.32c-2.3,9.94-3.18,21.3-12.24,24.48,0.68,23.85,3.8,44.8,1.36,68-4.28,6.14-9.17,11.68-8.16,23.12h-27.2c-2.68,3.67-.81,11.88-1.36,17.68-7.71.93-20.77,3.67-27.2,1.36-5.15-2.56-2.21-13.2-4.08-19-24.49-3.23-50.24.17-73.44,0-3.63-123.75-8.52-246.25-8.16-374C2430.16,2667.42,2495.27,2666.52,2558.42,2661.54Z" transform="translate(-117.33 -248.99)"/><path class="cls-6" d="M2359.87,3039.61c-56.57,5.08-121.52,1.78-182.23,2.72C2176,3023.45,2167,2988,2179,2973c-3.81-4.1-3.5-8.61-4.08-13.6-5-43,1.37-92.57,0-137.35-0.24-7.7-3.47-15.64-4.08-23.12-3.45-42.62.09-85.25,0-129.2,57.52-3.77,116.88,2,170-2.72,12.34-1.11,10.35-.17,10.88,16.32,0.66,20.84-.6,50.69,0,66.64C2354.92,2835.49,2356.87,2959.24,2359.87,3039.61Z" transform="translate(-117.33 -248.99)"/><path class="cls-6" d="M2161.32,2747.22c-3.36,24,3.82,47.15,5.44,70.72,5.19,75.27-5.78,153.21,2.72,224.39-86.09,1.45-174.42,7.76-261.11,4.08-1.62-101-2.07-198.21-5.44-295.11C1992,2750.07,2086.59,2749,2161.32,2747.22Z" transform="translate(-117.33 -248.99)"/><path class="cls-6" d="M1894.77,2751.3c4.61,93.32,2.75,198.28,5.44,289.67-25.91-6.72-48.09-29-74.8-39.44-7.33,24.7.89,57-1.36,85.68-51-1.16-96.38,3.35-142.8,6.8-0.3-58.53-8.39-124.89-5.44-186.31,13.57,0.88,24.2-1.18,36.72-1.36,1.09-51.21-1.28-99.72-2.72-151C1766.11,2748.66,1836.29,2755.83,1894.77,2751.3Z" transform="translate(-117.33 -248.99)"/><path class="cls-6" d="M1701.66,2754c3.67,48.73-.08,96.53,4.08,144.15-7.89,3-21.17.59-31.28,1.36v-35.36c-146.77-.44-309.84,4.3-459.66,10.88-5.19-34.76-1.47-67.16-4.08-107.43C1367.68,2761.81,1541.72,2756.76,1701.66,2754Z" transform="translate(-117.33 -248.99)"/></g><g id="Far_North" data-name="Far North"><path class="cls-7" d="M2271.48,253.08c4.42,10.27,12.47,22,8.16,36.72,10.54,25.45,12.89,53.05,23.12,76.16,5.14,11.62,17.69,23.78,25.84,35.36,4.46,6.33,6.26,14.35,12.24,19-1.75,2.78-7.63,1.44-8.16,5.44-0.27,27.55,6,58.9,15,81.6-50.89,1.26-113.37,2-164.55,4.08-18.78-74.14-52.15-133.7-58.48-220.31,33.17-4.64,64.12,11.73,91.12,0-8.51-13.71-28-23.64-32.64-36.72C2214,255.48,2241.18,252.7,2271.48,253.08Z" transform="translate(-117.33 -248.99)"/><path class="cls-7" d="M2116.44,291.15c6.67,88.08,40.13,149.35,59.84,224.39,2.5,4.75,11.57,2.93,16.32,5.44-0.9,22.66,1.23,42.29,1.36,63.92-41.81-.81-75.93,1-114.24,1.36-6,22-1.63,55.62-1.36,80.24-40.32.46-88.1-2.1-127.83,1.36-11.65-44.56-22.25-90.17-29.92-138.71-2.4-6.93,7.2-1.87,6.8-6.8,3.54-47.6-1.54-95.67,0-145.51-2.15-6.23,5.64-2.52,5.44-6.8,1.81-24,1-50.69,2.72-74.8C1997.13,290.76,2050,292.07,2116.44,291.15Z" transform="translate(-117.33 -248.99)"/><path class="cls-7" d="M1161.76,298c-0.69,83.77-2.11,153.76-1.36,240.71-7.41.61-11.17-2.42-19-1.36,0-5.91.45-12.24-1.36-16.32-30.25.12-61.42-.67-89.76,1.36-4.94-51.55,4.52-90.95,0-145.51,6.21-.59,15,1.37,19-1.36-4.65-11.22-4.58-27.15-4.08-43.52-1.89-4-9.53-2.25-12.24-5.44,0.16-9.23-2.36-15.78-1.36-25.84C1089,301.25,1129.05,297.6,1161.76,298Z" transform="translate(-117.33 -248.99)"/><path class="cls-7" d="M1387.51,336c2.2-.38,2.34,1.29,4.08,1.36,5.21,7.48,3.24,22.14,4.08,34a113.86,113.86,0,0,0,28.56,2.72c10.42,20.56,12.92,47.15,24.48,65.28,7.93,12.43,23.5,13,34,23.12,5.31-.13,5.38-5.5,8.16-8.16-1.34-5.46-7.6-6-10.88-9.52V409.47c9.84-1.49,21.09-1.58,32.64-1.36-1.37,19.53-.31,39.91-1.36,55.76-1.21,18.23,2.36,16.47,16.32,25.84,18.38,12.34,39.89,24,55.76,36.72,63.81,2.52,134.61-1.51,205.35,0q-18.91,32.76-36.72,66.64c-2.57,1.51-6.43,1.74-9.52,2.72-7.2,21.36-29.21,27.9-43.52,42.16V673.3h-61.2c-7.32-.39-4.93-10.48-13.6-9.52-7.2,24.3-2.77,56.79-1.36,87,1.27,27.32-1.64,55.07,2.72,78.88-9.49-1.39-20.12-1.64-31.28-1.36,1.05-16.92-1.84-29.9-1.36-46.24-4.06-2.73-12.83-.77-19-1.36,1.17-16.53-2.3-36.92,1.36-47.6-14.59-38.44-28.54-77.53-44.88-114.24-3-3.15-5.3.46-9.52,0,3.91-12.28-1.67-26.28-9.52-31.28-7.31.4-3.38,12-9.52,13.6-8.18-.44-11.12-6.1-17.68-8.16-9.34,7.65-21.88,22.32-36.72,9.52-4.2-6.26,2.36-11.64,2.72-17.68-6.92-5.77-17.92-7.46-19-19,2.85-8,11-10.78,15-17.68a71.13,71.13,0,0,0-2.72-20.4c-10.49-4-19.16.68-28.56-1.36-10.17-2.21-18.06-11.77-32.64-2.72-10.28-18.28-10-47.16-20.4-65.28-10.15,4.82-10.51,19.41-16.32,28.56-18.88-1.36-33.56,14.57-46.24,0,16.59-17,44.91-22.19,59.84-40.8-10.91-30.34-33.91-48.59-49-74.8,18.91-1.28,52.38-3.07,72.08,2.72C1390,367.51,1384.61,347.64,1387.51,336Z" transform="translate(-117.33 -248.99)"/><path class="cls-7" d="M475,438c1.29,8.68-3.36,23.3,4.08,25.84,10,1.84,8.14-8.17,13.6-10.88,7.32,1.29,16.19,1,15,10.88-26.48-1.21-47.93,7.06-70.72,0-15.46-4.79-23.8-24.54-43.52-15-1.71,10.32,3.61,13.62,13.6,12.24,9.12,7.65,20.22,13.32,29.92,20.4h24.48v15c32,4.27,59.76,12.77,89.76,19,1.56,8,1.54,17.5,1.36,27.2,8.53,5.56,22-1.94,35.36,0,15.58,64.66,34.35,126.12,49,191.75-6.92-.12-14.2-0.6-17.68,2.72-2,8.32,1.25,20.82,0,32.64,22.18,3.08,55,.07,73.44,2.72-33.5,3.05-73.68-.36-110.16,1.36-6.15,21-1,53.35-2.72,78.88-12.78,1.27-30-1.85-36.72,5.44,5.83,8,29.48,3.07,36.72,5.44-1.06,27.8,2,51.53,1.36,78.88-7.26-.46-11.91,1.69-17.68,2.72C545.53,933.22,516,932.79,485.87,933c-4.4,24.92,3.55,54.62,0,78.88-23.82-3.44-45.37,4.12-65.28,2.72-29.58-2.07-53.93-16.89-77.52-25.84-6.52-1.53-4.79,5.19-8.16,6.8-5-.85-8-3.82-12.24-5.44v-47.6c-16.92-2.3-44.52-4.82-63.92-12.24-6.11,10.21-1.08,31.56-2.72,46.24-9.76-.67-16.73-4.12-24.48-6.8-0.39-15,1.08-31.9-1.36-44.88-12-6.16-29.52-6.74-43.52-10.88-2.51-15.17-.3-35.06-2.72-50.32-5.78-2.38-15.31-1-23.12-1.36-0.73-7.88,2.07-19.29-2.72-23.12-11.37,2.23-15.78,11.42-17.68,23.12h-15c-1.34-100.27-1.33-192-2.72-292.39,20.6-21.82,25.81-62.29,40.8-85.68,1.39-3.48,3.35.26,6.8-1.36,6.5-3.06,13.75-16.23,19-21.76,3.36,3,1.57,11.12,4.08,15H230.2c2.93,1.15-.51,8.67,2.72,9.52,11,3.06,27.57.54,40.8,1.36,6.95-10.42-.92-28.84,2.72-40.8,15.4-4.55,43.59,3.69,53-6.8,8,7.21,31.49.4,47.6,2.72,5.64-8,1.41-25.78,2.72-38.08,4.3,2.89,15.27-3.36,19-1.36C423.47,415.75,452.26,425.17,475,438Z" transform="translate(-117.33 -248.99)"/><path class="cls-7" d="M1359,476.11c5.3,12.38,8,27.32,10.88,42.16a62.66,62.66,0,0,1-17.68,1.36c-11.09,28.12,24.38,28.88,36.72,42.16-2.34,37.21.74,71-4.08,108.8-22.71,1.29-55.76-4.83-74.8,2.72,0.66,52.48-1.93,93.31-1.36,145.51-36.17,1.46-73.66,1.6-111.52,1.36-5.6,8.48-22.13,3.54-31.28,5.44-1-25.73,3.3-46.16-1.36-66.64-27.46,1.1-56.67.44-81.6,4.08-5.26,12.63,3.7,31.07-5.44,39.44-6.55-2.81-4.29-19.15-2.72-25.84-2.87-3.93-6.1-7.49-6.8-13.6-20.44.87-44.37-1.76-62.56,1.36-4,.55-1.09,8-4.08,9.52-10.47-.95-17.68,1.36-27.2,1.36-4.63-3.53-2.94-13.38-13.6-10.88-0.21-7-2-12.49-6.8-15,23-3.91,47.92,1.94,73.44,0,6-23,2.93-55.1,8.16-78.88-1.91-5.34-12.9-1.61-19-2.72-3.14,1.39-2.81,6.25-2.72,10.88h-13.6c-0.5-5.39,1.25-13-1.36-16.32-11-3.06-27.57-.54-40.8-1.36-7,3.87-7.24,14.52-19,13.6-2.57,7-.89,18.15-1.36,27.2,14.62,4,38.42-1.24,53,2.72v8.16c0.26,5.25-8.52,1.45-10.88,4.08-1.41,3.58-1.63,8.35-1.36,13.6-10.46-.94-16.74,2.3-27.2,1.36-2.76,4.45-1.72,14.76,1.36,17.68h-19c1.51-40.21.07-66.84,0-108.8,34,6.38,67.29,13.4,102,19,7.4-41.11,11.86-85.15,16.32-129.2,29.06,1.41,51.9-3.4,80.24-2.72,3.67,4.35-1,9,0,15,7.85,4.11,25.07,5.52,35.36,2.72,3.11-15.48.5-36.67,1.36-54.4,2.6-1.8,8.66-3.8,10.88-9.52,17.52-3.47,23.2,4.91,36.72,5.44a34.49,34.49,0,0,0,2.72,10.88c14.23,1.54,24.24-1.15,27.2-10.88,13.58,2.52,21.67-3,31.28-1.36,3.8,0.65,3.24,4.92,8.16,6.8,3.13,1.2,7.19-1.16,9.52,0,5.7,2.83,8.22,8.62,13.6,9.52,13.26,2.22,21.33-8.87,39.44-6.8C1354.57,491.67,1354.77,481.9,1359,476.11Z" transform="translate(-117.33 -248.99)"/><path class="cls-7" d="M2351.72,515.54c0.23,25.77,6.71,62.7-1.36,80.24,6,24.36,21.51,39.23,36.72,54.4-3.71,29.6-4.34,66.72,5.44,81.6-57.79,7-123.18,6.47-187.67,6.8-1.38-65.85-1.4-147.76-4.08-220.31C2250.9,517.18,2299.17,514.22,2351.72,515.54Z" transform="translate(-117.33 -248.99)"/><path class="cls-7" d="M1912.45,526.42c11.67,84.44,36.17,156,50.32,238-16.2-8.14-32.46-11.45-47.6-1.36-7.67,5.11-12.22,18.48-20.4,20.4-28.22,6.61-39.88-25.71-70.72-24.48-2.31-9.48-11.79-11.79-19-16.32-7.61,4.63-19.39,5.09-27.2,9.52v35.36h-20.4c1.29-10.81-.09-19-9.52-19-0.55-5.8,1.32-14-1.36-17.68-35-3.41-75.63.7-115.6,0-1.34-23.14-2.73-46.23-2.72-70.72,16.66-1.34,53,2.19,77.52,0,3.62-13-1.9-27.06,1.36-40.8,15.89-9.5,33.44-17.33,39.44-36.72h8.16c15.41-24.48,27.85-51.93,43.52-76.16C1837.4,526.91,1876.81,525.64,1912.45,526.42Z" transform="translate(-117.33 -248.99)"/><path class="cls-7" d="M1436.47,533.23c6.34,16.34-8.89,20.35-15,28.56,4.35,10.61,5.53,24.39,19,25.84-15.2,30.22,36.36,36.29,43.52,15,8.63,8.44,22,5.48,29.92,2.72,1.77,7.21-3.94,6.94-2.72,13.6,2.36,6.51,8.76,10.65,15,9.52,9.05,16.09,11.77,34.32,19,51.68,6.4,15.29,18,31.91,20.4,49,2.37,17.21-3.27,36.11,1.36,57.12,3.22,3.13,12.21.49,17.68,1.36a335.91,335.91,0,0,1,1.36,40.8c-38.13,1.21-68.68,5.19-106.07,1.36-5.08.09-1.42-8.55-5.44-9.52-54,2-102.62,2.25-159.11,2.72,1.07-47.44,1.82-95.19,1.36-144.15,23.2-1.43,53.77,1.32,76.16-1.36,4.28-36.52,2.26-79.34,2.72-119.68-11.28-10-27.06-15.55-38.08-25.84,1.59-11.47,22.77-4.21,24.48,1.36C1398.7,521.84,1411.73,537.62,1436.47,533.23Z" transform="translate(-117.33 -248.99)"/><path class="cls-7" d="M2200.76,893.61c-52.54,2.9-107.24,2.86-156.39,2.72-4.22-27.45-26.79-41.66-40.8-62.56-6.05-9-11.58-21.9-17.68-32.64-20-35.16-19.52-76.61-34-125.12,40-6.2,92.62.15,134.64-4.08-0.89-19.69-2-50.49-1.36-76.16,26.09-5,78.63-1.86,108.79-2.72C2194.79,698,2199.13,787.06,2200.76,893.61Z" transform="translate(-117.33 -248.99)"/><path class="cls-7" d="M785.05,609.38c44.55,12.11,92.27,21.06,140.07,29.92,0.73,37-.83,81.55,1.36,117-10.2,3.85-29.16-1.05-39.44,2.72-1.31,3.58-2.63,11.65,0,15,6.38,2.32,17.29-1.43,27.2,0a100.73,100.73,0,0,1,1.36,21.76c0.06,5.38,11.11-.23,9.52,6.8-4.83,6.5-22.63,0-29.92,4.08v-19C882.43,784.45,864,787,849,786.17c-2.37,19.34,1.64,42.75-1.36,63.92,22.59,4.09,50.12-1.26,77.52,0-0.13,78.79.76,151.38,2.72,225.75,0.07,4.91,7.16,2.82,9.52,5.44-0.7,23.82,4.3,41.94,2.72,66.64-14.49,2.48-29,.72-43.52,1.36-21.13.93-47.18,6.62-63.92,2.72-20.12-4.69-23.85-41.14-31.28-65.28-8.81-28.62-20.48-51.27-5.44-76.16,15.55-1.22,30.6-2.95,47.6-2.72,7.77-11.19,2.36-34.16,1.36-49-24.44-2.17-54.58,1.59-81.6,1.36C750.38,943,769,924,776.9,901.77c2.86-8.09,3.27-18,5.44-27.2,4.17-17.74,9-27.48,10.88-51.68,1.69-22.13,3.88-36.86-13.6-43.52-8.6,3.19-16.34,7.23-24.48,10.88-11-2.12-11.32-15-21.76-17.68C743.87,745,760,723,776.9,701.86,774.86,665.54,779.34,639.95,785.05,609.38Z" transform="translate(-117.33 -248.99)"/><path class="cls-7" d="M2529.87,861c8.14,18.48-5.3,26.65-17.68,38.08-14.63,13.5-29.41,24.28-44.88,6.8,16.74,11.57,41.62.43,40.8-21.76-15.37-9.2-44.36.12-57.12,6.8,2.19,28.36,3.1,50.15,8.16,76.16-55.19-2.8-103.8,3.36-160.48,0-12.29-22.16-19.64-49.26-28.56-74.8-18.56,1.84-39.44,1.36-59.84,1.36-5-45.8-2-99.51-5.44-146.87,65.11-8.76,154.52,10.67,205.35-12.24,1.3-.59,2.24-2.58,4.08-2.72,1.1,0.26,1.36,1.36,2.72,1.36C2418.71,811.66,2452.92,857.68,2529.87,861Z" transform="translate(-117.33 -248.99)"/><path class="cls-7" d="M2037.57,897.69c-72.26,4.51-170.19,1.52-238,4.08-8.51.32-18.93,3.46-27.2,1.36-8.67-2.2-24.31-18.84-32.64-27.2-14.1-14.15-34.36-24.45-32.64-47.6-21.39-.87-49,2.48-76.16-1.36,0.47-24-.33-46.82-1.36-69.36,34.34,0.38,76.58-1.28,111.52-1.36v17.68c1.31,2.77,5.22,2.94,9.52,2.72,0.5,5.39-1.25,13,1.36,16.32,8,2.23,24.66,2.23,32.64,0,2.39-9.44-1.48-23.72,0-36.72,15.73-8,31.95-5.17,38.08,9.52,22.48,3.36,38.39,13.29,53,24.48,23,2.64,35.12-5.68,40.8-20.4,13.92-10,39.35-4.52,50.32,4.08,10.62,23.52,18.74,45.93,32.64,65.28C2012.48,857.29,2033.28,872,2037.57,897.69Z" transform="translate(-117.33 -248.99)"/><path class="cls-7" d="M718.42,772.58c1.89-3.1,9.47-.51,13.6-1.36C730.13,774.32,722.55,771.72,718.42,772.58Z" transform="translate(-117.33 -248.99)"/><path class="cls-7" d="M147.24,497.87c-1.4,3.14-4.68,4.38-4.08,9.52-8.65-.94-13.11,2.3-21.76,1.36v-9.52C131,499.78,137.11,496.8,147.24,497.87Z" transform="translate(-117.33 -248.99)"/><path class="cls-7" d="M164.92,410.83H169c-1.13,7.48,3.16,20.38-4.08,21.76C163.15,426.92,161.75,413.23,164.92,410.83Z" transform="translate(-117.33 -248.99)"/></g><g id="Northwest"><path class="cls-8" d="M1465,828.33c7-1.59,1.42,9.46,6.8,9.52,16-2.69,30.37,2.89,44.88,2.72,37-.43,71.61-10.11,108.8-1.36,1.65,28-7.51,59.06,15,66.64-1.07,3-8.42-.26-6.8,5.44,10.15,26.57,19.64,53.8,32.64,77.52,1.11,22.21-1.46,48.61,0,72.08,1,16.65,6.78,32.42-4.08,42.16v16.32c-0.34,6.68,8.5,4.19,5.44,13.6-7,8-20.9,2.37-32.64,2.72-64,1.93-155.54,3.94-227.11,4.08-0.21-51.92-2-102.3-4.08-152.31-23.22-3.2-52.48-.86-76.16,0-2.7-54.51-2.45-105-2.72-156.39C1368.66,827.17,1421.28,832.18,1465,828.33Z" transform="translate(-117.33 -248.99)"/><path class="cls-8" d="M1701.66,835.13v12.24c20.16,22.91,43.83,42.3,66.64,62.56,89-1.65,185-3.52,270.63-4.08,0.44,26.74,5.31,45.71,1.36,69.36-2.56,15.3-16,27.53-17.68,40.8-1.55,12.31,4.83,23.17,4.08,35.36-83.12,1-167.33,3.2-242.07,5.44-3,24.42,1.17,50.36,1.36,74.8-16.47,4.84-46.13-3.52-58.48,5.44-14-5.83-36-1-51.68,0,2-12.43-2-18.89-6.8-24.48-2.65-9.45,6.66-6.94,6.8-13.6,1.93-11.93-.56-22.43-1.36-35.36-1.51-24.23,4.11-53.64,0-74.8-1.17-6-5.48-9.31-8.16-15-9-19-14.69-42.87-23.12-58.48,5.93,0,12.6.81,15-2.72-3.91-11-16.11-13.81-24.48-20.4,0.78-17.31-2.22-36,0-57.12C1658.79,834.75,1678,836.85,1701.66,835.13Z" transform="translate(-117.33 -248.99)"/><path class="cls-8" d="M1318.16,919.45c0.31,25.53.78,50.9,2.72,74.8,22.32,2.31,54.32,2.69,74.8-1.36,2.75,48,3.34,98.2,5.44,146.87-79.12,2-160.87,1.42-238,5.44-3,9.66-.56,24.83-1.36,36.72-22.75.82-48.84-1.7-69.36,1.36,0.52-13.22-.42-25-1.36-36.72-43.3-.63-94.22,2.75-142.79,1.36,0.77-25.25-3.15-45.81-2.72-70.72-0.17-5.27-7.08-3.8-9.52-6.8-2.27-45.79-3.53-99.81-2.72-144.15,9.55,0.94,14.92-2.3,24.48-1.36,3.61,23.14,8,45.5,6.8,73.44,60,6.86,128.83-1.68,195.83-1.36,6-.84,3-10.58,5.44-15,35.24-19.61,66.15-43.55,100.64-63.92C1284.83,917.41,1301.12,918.81,1318.16,919.45Z" transform="translate(-117.33 -248.99)"/><path class="cls-8" d="M1788.69,1353.27c4.9,4.46,13.42-2.47,17.68,1.36,5.57,9.12-.12,20.05,2.72,28.56,2.68,8,14.88,8.44,13.6,17.68-50.76-.39-93.82,4.25-138.72-1.36-5.29-81.33-3.61-170.51-8.16-255.67,16,1.91,31.36-4,44.88,0,29.94,45.31,38.88,111.62,68,157.75C1786.65,1314.62,1791.2,1331.7,1788.69,1353.27Z" transform="translate(-117.33 -248.99)"/><path class="cls-8" d="M1667.66,1143.84c4.72,87.66,2.25,171.79,8.16,254.31-17.75,1.66-33.3-9.79-53-12.24-12.19-1.52-25.42,1-38.08,0-26.69-2.16-51.9-12.81-80.24-15-34.82-2.64-72.75,0-110.16,0-19.37,0-39.68,3.28-57.12,1.36-9.78-1.07-28.95-5.55-32.64-9.52-6.1-6.57-6.22-36.19-6.8-49-2.5-55.11-1-110.8-4.08-163.19C1416.78,1147.05,1548.13,1145.75,1667.66,1143.84Z" transform="translate(-117.33 -248.99)"/><path class="cls-8" d="M1285.51,1150.64c2.67,67.6,2.06,138.47,6.8,204-3.93,1.81-9.8-2-13.6-4.08-31.88-17.58-70.41-37.58-106.07-51.68-2.29-48.17-4.18-97-1.36-146.88C1210.54,1152.72,1245.94,1149.6,1285.51,1150.64Z" transform="translate(-117.33 -248.99)"/></g><g id="North"><path class="cls-9" d="M2266,900.41c5.36,28.64,15.88,52.12,28.56,73.44,56.35,4.46,114-2,167.27,1.36,8.43,45.52,32.9,82.24,51.68,112.88-15.84,7.62-13.73-18.77-20.4-28.56-21.47,1.91-25.33-20.81-40.8-20.4-2.27,10.2,10.58,16.45,15,24.48-7.1,14.93,6.37,21.19,10.88,31.28,5.85,13.1,5.84,31.77,17.68,36.72,9-2.36,18.6-4.07,17.68-16.32,7.19,28.2,22,56,27.2,81.6-98.13-2.61-219,5.26-325,5.44-1-95.64-5.36-193.62-5.44-300.55C2229.58,902,2248.42,901.83,2266,900.41Z" transform="translate(-117.33 -248.99)"/><path class="cls-9" d="M2198,901.77c6.07,4.75,2.2,17.53,2.72,29.92,3.77,89.37,5.7,187.12,6.8,272h-65.28c-7-7-13.74-14.36-25.84-16.32-9.77-12.9-18.56-26.77-35.36-32.64-8.21-21.57-31.13-36.08-39.44-59.84-3.53-10.09-4.92-24.67-6.8-38.08-1.64-11.73-5.86-29.38-4.08-40.8,1.65-10.58,15-23.31,17.68-38.08,4.61-25.06-2.66-47.88-1.36-73.44C2094.08,904.51,2147.53,904.66,2198,901.77Z" transform="translate(-117.33 -248.99)"/><path class="cls-9" d="M2028,1060.88c1.28,47.22,30.27,66.73,46.24,99.28,6.14,3.38,13.15,5.89,17.68,10.88-0.39,11,.56,27.25,0,34-107.33,1.8-215.52,3.45-333.19,5.44-6.87-24.41-17.77-44.79-27.2-66.64,15-6.31,42.65,0,59.84-4.08,7.37-22.36-2.35-47.37,0-76.16C1865,1064.5,1950.37,1058.8,2028,1060.88Z" transform="translate(-117.33 -248.99)"/><path class="cls-9" d="M2100.12,1180.56c7.72,8.14,13.82,17.91,28.56,19,9.87,17.78,23.11,32.2,31.28,51.68,14.47,4.58,29.12,9,36.72,20.4-4.83,27.76,20.47,44.55,49,47.6,12.29,21.7,29.72,38.28,36.72,65.28-21.77,14-64.22,7.4-96.56,10.88-4.54-.9-4-6.93-8.16-8.16-10.5,3.86-16.49-.52-21.76-5.44-4.72-.64-0.78,7.38-4.08,8.16-6.82,1.34-15.37,1-17.68,6.8-19.16,2.6-42.66.86-63.92,1.36-6.48,1.49-1.87-8.1-6.8-8.16-5.13-.6-2.87,6.2-5.44,8.16-78.84-.45-153.67,3.47-227.11,2.72-3-8.77-4.87-18.7-13.6-21.76,1-15-.5-22.82-8.16-34h-12.24c-0.49-17.73,2.51-34.49-1.36-51.68-18.46-17.35-22.21-49.41-32.64-74.8,79.71-1,160.76-2.83,238-2.72,8.15,0,16.64-3.49,24.48-2.72,4.66,0.46,9.21,4,13.6,4.08,4.7,0,8.23-3.2,13.6-4.08,15-2.45,33.58,2.46,46.24-1.36C2101.75,1203.95,2099.35,1190.67,2100.12,1180.56Z" transform="translate(-117.33 -248.99)"/><path class="cls-9" d="M2539.39,1207.76c0.41,10.31-2.84,19.3-1.36,31.28,1.08,8.72,8.83,17.34,12.24,28.56,8.72,28.65,2,62,10.88,83,4.25,10.05,20.1,18.14,28.56,24.48,10.89,8.16,19.54,15.94,29.92,21.76-9,7.75-19.36,24.37-32.64,27.2-9.76,2.08-27.32.27-43.52,1.36-67.68,4.54-132.58,1.28-199.91,6.8-5.19-15.21-10-30.84-16.32-44.88-10.86-2.74-24-3.2-35.36-5.44-11.36-25.81-26.44-47.91-42.16-69.36-24.6-4-49.39-13.43-44.88-42.16-7.37-14.84-23.44-21-40.8-25.84-3.47-11.94-13.18-24.88-16.32-32.64,98.56-3.06,214-2.08,315.51-6.8C2489.85,1203.8,2520.59,1201.93,2539.39,1207.76Z" transform="translate(-117.33 -248.99)"/></g><g id="West"><path class="cls-10" d="M1675.82,1406.31c-2.64,58.71-1.67,116.18,0,170,0.56,18.2,5.19,35.42,5.44,53,0.42,29.16.93,58.5,1.36,87,0.4,26.37.73,51.11,1.36,76.16-0.26,6.6,9.43,3.27,8.16,10.88-9,26.17-10.41,66.35-6.8,100.64-84.57,2.55-176,.18-261.11,5.44-1.61-156.14-7.64-307.87-12.24-461-75.26-1.19-166.92,2.5-236.63,2.72,0.48-44.24-1.7-95.71-2.72-142.8,18.5,6.92,43.77,18.23,68,29.92,30.8,14.87,55.38,37.29,92.48,42.16,32.6,4.28,70-1.64,104.72,0,34.39,1.63,68.14-3.49,102,2.72,17.36,3.19,33.73,11.19,50.32,12.24,7.6,0.48,17.9-3.33,25.84-2.72C1635.93,1394.24,1655,1407.84,1675.82,1406.31Z" transform="translate(-117.33 -248.99)"/><path class="cls-10" d="M2321.8,1394.07c1.35,14.06,14.44,25.58,15,42.16,0.35,11.15-8.32,21.92-9.52,34-3,30,6.86,49.65,20.4,72.08,32.81,7.54,50.7,30,84.32,36.72,1.43,37.55,25.33,52.64,38.08,78.88-42.4,2.59-91.84,2.47-144.15,4.08-14,.43-27-3.3-39.44-2.72-58.37,2.74-116.81,4.24-178.15,4.08-5.23,9.28-20.16,8.85-35.36,8.16-2.4-13.47.19-31.92-2.72-44.88-11.88-7.62-25.19-13.79-38.08-20.4-0.44-5,1.16-12-1.36-15-11.53-2.71-30.43-1.57-42.16,0,0.12-14.66,4.57-25.36,0-38.08-8.68-1.58-25.25,2.17-35.36-1.36-1.6-32.68-2.5-67.34-2.72-106.07,14.1-3.09,19.64-.29,35.36,0,8.86-6.1,4.26-25.66,5.44-39.44,41.89,5.52,93.19-8.81,134.64-1.36,6.95,1.25,8.88,4.37,15,6.8,6-.35,2.63-10.06,5.44-13.6,13.64-2.5,28.18-2.09,35.36,5.44,29.44-3.85,54.67,2.13,80.24-2.72C2278.91,1397.65,2296.41,1382.68,2321.8,1394.07Z" transform="translate(-117.33 -248.99)"/><path class="cls-10" d="M1984.53,1409c0.79,11.22-2,18.86-2.72,28.56-14.82-3.53-23.38-.85-38.08,1.36-3.91,39,2.83,78.66,1.36,119.68,9.66,3,24.83.55,36.72,1.36,1.53,13.49-4.1,26.48,0,38.08,11.61,3.68,25.15-1.88,39.44,0,4.07,20,24.63,23.42,40.8,31.28,1.56,13.4.9,29,2.72,42.16-74.63-7.46-168.06,2.18-236.63-4.08-8.67,6.46-19.15,4-34,4.08-32,.11-71.36,2.74-104.72,1.36-1.81-87.42-12.88-177.24-5.44-265.19,60.67,5.2,127.16-.3,195.83,1.36C1919.22,1410,1955.6,1403.52,1984.53,1409Z" transform="translate(-117.33 -248.99)"/><path class="cls-10" d="M2474.11,1666.06c2,11.54,9.18,17.78,10.88,27.2,4.36,24.19-4.89,48.25-2.72,70.72,1.88,19.4,11.88,34.33,17.68,53,13.35,43.07,12.05,89.45,12.24,148.24-135.18,6.12-281.46,4.19-412.07,12.24-3.87-12.34-.78-26-4.08-40.8-2.12-9.48-10-17.39-13.6-27.2-16.42-44.46-4.54-100.84-9.52-160.47,2.71-7.69-7.22-2.76-6.8-8.16-0.93-13.17-.58-25.06,6.8-29.92,1.35-10.66-3-19.71,1.36-25.84,12.24-5.89,32.25-4,40.8-13.6,58.95-.76,117.17-1.06,171.35-4.08,12.52-.7,25.16,2.84,38.08,2.72,25.23-.24,50.43-4.71,74.8-2.72,7,0.57,14.39,2.86,21.76,2.72C2435.38,1669.88,2453.66,1663,2474.11,1666.06Z" transform="translate(-117.33 -248.99)"/><path class="cls-10" d="M1829.49,1676.94c4.73,37.28,6,80,8.16,117,1.57,27-.39,53.78,1.36,81.6-5.34,1.29-17.86-.86-27.2,0-10.32-13.56-41.93-4-61.2-5.44-3-4.75.4-15.81-2.72-20.4-21.17,3.76-34.07,15.8-55.76,19-0.9-10.44,1.8-24.46-1.36-32.64,11.4-5.37,6.13-27.42,8.16-42.16,1.62-5.7-5.73-2.43-6.8-5.44-2.56-39.69-1.8-69.67-2.72-107.44C1736.64,1679.6,1796.11,1684.37,1829.49,1676.94Z" transform="translate(-117.33 -248.99)"/><path class="cls-10" d="M2067.48,1678.3c-4.81,7.5.26,28.29-9.52,35.36,0.78,12.17,2,22.23,0,34-1.16,5.7,6.09,3,8.16,5.44-3.31,37.86.85,75.19,1.36,115.59-33,4.78-67.94-.7-102,2.72-6.62.72-2.44-9.35-6.8-10.88-38.44-.36-73.76,2.4-112.88,1.36-0.34-62.22-3.77-121.34-5.44-182.23,49.24-6.65,106.27-.34,160.48-2.72,9.47-.42,17.92-2.25,25.84-1.36C2038.88,1676.95,2051.6,1684.68,2067.48,1678.3Z" transform="translate(-117.33 -248.99)"/><path class="cls-10" d="M1739.74,1860.53c6.15,1.1.37,14.13,4.08,17.68h53c8.65,9,30.93,4.43,46.24,6.8,4.93-1,1.87-9.91,2.72-15,36.24,0.88,69.53-1.19,104.72-1.36,5.64-1.11.68,8.38,4.08,9.52,37.73-.81,78.74,1.67,114.24-1.36-3.55,25.93,12.66,39.24,17.68,57.12,5.5,19.57,4.35,38.88,5.44,66.64-32.06,13.48-66.8,15.85-114.24,13.6-6.3,3.9.79,17.92-4.08,20.4-23.14.13-38.76,0.86-61.2,0-6,3.39.9,11.85-2.72,16.32-25.1,3.91-59.25-1.23-84.32,2.72-2.89,5.72-.66,16.56-1.36,24.48-40,14.87-85.7,24-125.12,39.44-5.1-78.66-3.45-162.06-8.16-238C1707.35,1873.48,1722.85,1866.31,1739.74,1860.53Z" transform="translate(-117.33 -248.99)"/><path class="cls-10" d="M2510.83,1973.41c-1.76,10.58-2.4,23.76-8.16,32.64-5.41,8.35-16.78,11.31-23.12,17.68-15.89,16-19.92,49.68-44.88,55.76-13.05,3.18-30.22,3.94-47.6,8.16-21,5.1-37.48,14-59.84,12.24-14.32,10.16-24.45,24.51-40.8,32.64-2.86,17.61-15.84,33.06-8.16,53-11.94,2.83-19.34,17.77-31.28,20.4-26.24,5.78-55.46-3.53-80.24-1.36-26.76,2.34-40.55,21.92-62.56,24.48-0.55-76.3-8.53-166.88-2.72-244.79C2233.16,1979.08,2377.68,1977.87,2510.83,1973.41Z" transform="translate(-117.33 -248.99)"/><path class="cls-10" d="M2086.52,2010.13c7.85,3.17,3.74,13.14,4.08,19,3.69,64.44,2.23,137.22,5.44,201.27-62.82,32.74-131.36,54.37-197.19,83-65.33,28.38-130.65,57.12-194.47,85.68-10.79-86.78,1.9-176.7-4.08-272,39-19,90.29-25.76,130.56-43.52,2.86-5.3.68-15.64,1.36-23.12,27.87-1.1,56.86,1.26,83-4.08,7.07-1.85.27-9.38,4.08-13.6,23.29-.22,42.27.95,62.56-2.72,2.68-3.67.81-11.88,1.36-17.68,22.86-3.29,38.93,3.45,55.76,2.72C2054.19,2024.42,2070.23,2011.9,2086.52,2010.13Z" transform="translate(-117.33 -248.99)"/></g></g><g id="Central"><path class="cls-11" d="M2587,1430.79c-3.74,33.07,5.19,74.93,19,99.28,7.83,1.69,15.59,3.45,23.12,5.44,19.54,25.79,30.39,60.27,49,87,21.7,1.3,20.16-20.64,29.92-31.28,20.32-.63,32.92-1.26,54.4-1.36-1.05,9.67,2.06,15.17,1.36,24.48-18.57,2.28-41.83-.12-58.48,4.08,0.44,5-1.16,12,1.36,15,21,2.79,49.49,1.5,70.71,0-16.27,8.66-46.94,2.93-68,6.8-3.55,2.8,1,13.65-2.72,16.32-10,2.78-5-9.54-9.52-12.24-11.41-.49-30-0.78-47.6,0-10,.44-23.87-1-27.2,6.8,8.83,11,44.07-.79,61.19,5.44-9.57,15.76-35,8-54.4,6.8-11.39-.69-24.2-4.16-34-2.72-10.22,1.5-24.49,14.22-40.8,16.32-25.77,3.32-52.19-7.58-63.92,9.52-8.43-23.77-18.37-43-32.64-62.56-4.06-5.56-11.63-12.19-13.6-17.68-3.83-10.65,1.35-23.59-6.8-34-34.1-5.79-50.68-29.1-84.32-35.36-17.74-23.29-24.58-68-8.16-96.56C2422.86,1435.32,2508.2,1437.71,2587,1430.79Z" transform="translate(-117.33 -248.99)"/><path class="cls-11" d="M2672.66,1674.22c-1.9,15.4,7,23.43,4.08,35.36-3.47,14.05-35.27,19.25-19,38.08-4.56,2.18-3.4,4.77-4.08,9.52-5.11,35.48,7.28,86.91,2.72,122.39-38.6,14.38-92.83,4.89-136,9.52-5-23.68-5.12-47.55-12.24-72.08-8.57-29.51-19.8-43.24-17.68-85.68,1-20.88.92-40.09,16.32-47.6,32.53,2.54,68,1,88.4-15C2622,1669.6,2646.22,1673,2672.66,1674.22Z" transform="translate(-117.33 -248.99)"/><path class="cls-11" d="M2679.46,1887.73c1.49,6-3.29,9.91,0,13.6,15.85,1.69,39.88.07,55.76-2.72,2.73,13.84-9.57,20.5-9.52,31.28,0.05,10.93,9.15,17.47,10.88,29.92-14,16.79-2.52,52.14-4.08,77.52-9.29-.53-13.3,1.93-19-1.36,2.64-9.14-.11-23.69,5.44-29.92-21.55-24.2,2.61-71.18-13.6-100.64h-17.68c-14.23,21.52,2.6,52.86-1.36,80.24-1.28,8.83-8.07,19.32-5.44,29.92,1.39,5.59,7.42,6.87,10.88,12.24,8.92,13.86,6.36,30.52,1.36,44.88,4.59,16.72,13.61,29,16.32,47.6-18.39,0-45.13,5.72-57.12-4.08-27.78,3-61.1.55-91.11,1.36-3.82-22,1-47,1.36-69.36-11.76-10.28-5.94-42.9-9.52-57.12-9.66-3-24.83-.56-36.72-1.36,7.78-24.41,2.58-61.79,4.08-92.47,29.09-1.63,57.91-1.21,91.11-2.72,9.81-.45,20.43,1.61,28.56,0C2648.8,1892.79,2663.84,1881.88,2679.46,1887.73Z" transform="translate(-117.33 -248.99)"/></g><path id="Op_Frame" data-name="Op Frame" class="cls-12" d="M3381.2,4141.16v96.56H2650.91c0.5-19.63.94-36.82,1.36-53-9-2.82-23.09-.48-29.92-5.44a819.2,819.2,0,0,0,20.4-91.11c-18.21,2.22-7.81-17.05-17.68-25.84-6-5.34-18.33-4.09-28.56,0-18.73,7.49-35.92,37.75-55.76,42.16-21.47,4.77-45.93,0-65.28,0-21.51,0-40,2.88-59.83,2.72,0.88-23.15-1.78-49.83,1.36-70.72h40.8c-1.48-22.1-1.58-45.56-1.36-69.36-52.31-2.82-107.59,5.63-155-1.36,2.51-24.1-1.55-48.79,0-72.08-9.16-2.93-22.16,3.7-32.64,0-5.78,8.25-2.27,15.43-12.24,16.32-11.85,1.05-9.15-9.41-10.88-16.32-45.52,1-101.49,3.3-141.43,0,10.19-20.9,5.46-47.21,5.44-74.8-26.77-1.8-53.34,3.71-76.16,1.36,0.62-14.21-.59-26.61-1.36-39.44h-21.76c-0.77,7.26,3.16,11.91,0,17.68-13.54.58-5.06,14.83-10.88,23.12-13.27-1-22.34,2.14-35.36,1.36-3.28,11.92,2.24,24.22-1.36,35.36-13.22,3.56-36.82,4-51.68,1.36-8.59-12.31-1.41-18.84-1.36-35.36-68.89-6.16-153.65,6.92-221.67,1.36,0.23-27-3.82-56.87,0-83,49.61-2.07,101.93-1.43,151-4.08,0-76.12-5.32-154.24-4.08-227.11,20.13-3.95,49.48-5.76,72.08-2.72,3.32,3.48,2.84,10.76,2.72,17.68,2.74,2.7,10.48.4,9.52,6.8v51.68c18.55-.93,44.3-0.14,66.64-1.36,5.09-.81,1.89-9.9,8.16-9.52,22.87-.68,48.37-3,70.72,0,3.93-23.25-5.09-46.14,1.36-66.64,22.07-4.46,48,.1,74.8-1.36-0.45-75.71-5.32-147-5.44-223-41.89-2.23-81.13,2.45-122.4,4.08-24.09,1-48.8-2.45-73.44-1.36s-48.75,1.55-73.44,2.72c-49.23,2.33-99.45-1.91-145.51,2.72-12.78,1.28-29.7,2.54-44.88-1.36,2-55.35-.3-117.33-2.72-172.71-12.33-.81-28,1.69-38.08-1.36,0.74-8.78-1.58-20.62,1.36-27.2,12.8,0.56,22.06-2.42,35.36-1.36,1.12-69-6.19-147.55-4.08-217.59-147,5.54-314.28,4.3-459.66,13.6-6.74-78.94-4-168.24-8.16-255.67,13.35-8.21,26.35-21.64,42.16-24.48,26.38-4.73,59.29-.31,89.76-1.36,86-3,176.19-2.84,253-8.16,0.19-45.08-2.24-94.75-2.72-134.64,19-11.33,42.34-18.4,63.92-27.2,1-20.45-3.75-47,1.36-66.64,16.22-.1,30.37-2.27,47.6-1.36-6.9-63.56,1.28-129.8-1.36-195.83-3.51-87.69-7.77-175.21-8.16-257-83.37,2.15-185.56,2.48-267.91,5.44-3.84-148.91-7.42-314.14-12.24-462.38-87.95,2.59-155.52,4.85-236.63,4.08-2.09-97.28-3.79-173-6.8-269.27-28-.4-52.54,1.65-76.16,1.36-2.81-9.88-.71-24.67-1.36-36.72-89,2-166.46,3.36-257,5.44-20.2-12-24.74-40.8-34-70.72-10.34-33.42-20.93-62.69,1.36-85.68a407.56,407.56,0,0,0,44.88-2.72c0.16-11.94.23-23.8-1.36-34-27.74-.54-52.82,1.58-78.88,2.72-5-5.85-6-15.75-9.52-23.12,16.31-36,33.29-78.95,36.72-131.92C787,804.78,788.7,794,781,788.89c-9-1.08-19.32,7.71-28.56,10.88-9-4.48-12.18-16.4-23.12-19-9.41-2.27-25-.25-38.08,0-31.89.62-72.22-.65-104.72,1.36,3.68,52.08-.85,112.36,2.72,164.55-31.53,13.86-56.41-12.72-96.56-6.8-2.68,27.43,5.64,57.45-1.36,80.24-26.24-4.74-50,4.41-72.08,2.72-25.44-2-51.92-17.61-74.8-24.48-3.57,10.35-16.57,2.75-27.2-1.36-5.47-14.93-11.4-29.4-12.24-49-14.47-2.3-29.35-4.2-42.16-8.16-2.57,16.31,5.26,34.72-1.36,46.24-13.29-3-27-5.68-36.72-12.24,1.05-16-2-27.91-1.36-43.52-13.17-5.87-33.14-4.94-44.88-12.24,1-17.36-2.12-30.52-1.36-47.6-7.81-.35-17.34,1-23.12-1.36,1.1-7.59-3-12,0-17.68-8.44,1.07-3.83,15.21-9.52,19-8.47-1-21.56,2.52-25.84-2.72-0.84-3.69,1.73-10.79-1.36-12.24V560.42c3.28,0.56,3-2.48,6.8-1.36,3.8-14.86,15.78-25.44,12.24-43.52-7.78-1-12.15,1.45-19,1.36V492.42c11.59-1.11,23.6-1.79,34-4.08,12-19.53,1-53.91,4.08-81.6,4.73-3,11.81-3.6,19-4.08a188.41,188.41,0,0,1,2.72,32.64c-11.27,2.18-6.18,23.83-5.44,34,7.14-1.6,14.81-21.29,24.48-20.4a58.07,58.07,0,0,1,2.72,20.4c12.26-.43,26.53,1.15,36.72-1.36,3.55,2.34.92,10.86,5.44,12.24,6.07-2.41,21.08-2.06,27.2,0,0.81-14.6-2.51-33.34,4.08-42.16,18.28,1.06,32.48-2,50.32-1.36,1.7-13.26-4.49-34.41,8.16-36.72,7.25,6.8,3.16,25,6.8,35.36,12.08-.16,25.21.73,35.36-1.36,0.9-11.79-1.8-27.19,1.36-36.72,43.81-4.12,75.52,23,107.44,36.72,2.52,2.92.92,10,1.36,15,9.79-5.86,38.48-3.45,31.28,20.4-10.79,6.44-31.13,3.32-47.6,4.08-0.46,1,2.79,9.85,1.36,16.32,30.76,6.42,62.6,11.74,89.76,21.76,2.18,7.34,1.5,17.53,2.72,25.84,10.78-.65,22.24-4.45,32.64-1.36,17.05,68.17,37.28,133.16,51.68,204-4.92,2.33-11.11,3.39-19,2.72v20.4c20.41-1.08,44.56,5.56,59.84-2.72,8.56,6.08,31.2,4.9,43.52,2.72,6.09-6.92,4.91-14.59,9.52-23.12,8.33-15.43,27.93-28.4,31.28-43.52,2.92-13.2-1.87-32.26,0-49,1.25-11.14,7.18-22.32,6.8-29.92-0.3-6-6.49-12.35-4.08-17.68,83.46,19.9,171.29,35.42,258.39,51.68,13.4-89,11.57-182.47,12.24-281.51,4.87-3.55,11,1.71,15-1.36V337.39c-16.08-2.14-16.06-27.35-13.6-43.52,38.3,0,85.87-6.63,123.76-1.36,0.58,66.59-2.25,128.83,0,187.67,2.67-8.27,22.94-6.32,35.36-6.8,6.86,4.2,8.19,6.89,17.68,6.8,1.19,5.15,1,11.72,9.52,9.52,7.74,1.39,1.39-11.3,9.52-9.52,16.22,0,40-5.16,51.68,2.72,16-16.59,42.47-22.81,58.48-39.44-13.48-30-40.68-46.36-50.32-80.24,28.25,0.76,52.2-2.44,77.52,1.36,2.57-10.13-.26-25.65,2.72-35.36,6.94,0.77,17.49-2.08,20.4,2.72,3,8.77.57,23,1.36,34,8.58,0,17.76.54,24.48-1.36,5.63,13.62,13.05,29.21,19,44.88,5.67,14.85,6.93,34,25.84,36.72,1.43-14.44-3.09-34.82,2.72-44.88,15.86,1.68,32.38-2.8,44.88,0,1.37,20.94-2.5,48.22-1.36,73.44,9.59,7.24,21.06,14.28,34,21.76,10.84,6.26,23.27,19.13,34,21.76,5.59,1.37,14.72-1,21.76,0,5.89,0.8,10.44,3.91,15,4.08,7.38,0.28,15.59-3.48,23.12-4.08,34.79-2.78,74.28,1.54,112.88,1.36,55.59-.26,111.69-2.41,161.83-1.36V368.67c-1.59-6.12,7.6-1.47,5.44-8.16,1.77-22.68,1.64-49.93,1.36-70.72,86.82-8,185.68-8.22,273.35-2.72-6.3-10.93-25-21.28-29.92-38.08h107.44c-0.24,1.95.87,2.89,1.36,4.08,13.94,34.24,16.55,77,29.92,111.52,16.74,16.8,28.4,38.69,40.79,59.84-0.07,6.72-12.95.65-10.88,9.52,3,17.23,3.78,34.5,8.16,53,2.1,8.85,8.4,16.91,10.88,25.84,4.58,16.49,4,41.55,4.08,58.48,0.05,11.66-4.35,25.22-2.72,32.64,3.51,16,27.75,33.44,35.36,44.88-6.66,23.39-.76,51.19-1.36,69.36,8.51,2.36,20,1.77,27.2,5.44,6.49,34.39,6.84,64.48,23.12,88.4,18.51,27.19,47,40.61,91.12,42.16,3.29,8.5,2.93,20.64,5.44,29.92-19,6.64-31.28,38-53,39.44-10,.66-16.79-8.61-27.2-6.8,3.49,80.38,35.87,131.86,69.36,182.23-2,3.94-9.3,2.49-10.88,6.8,9.21,30.23,18,60.85,31.28,87-4.64,13.86-7.06,29.77-5.44,44.88,1.18,11.07,9.46,20.27,12.24,29.92,7.26,25.21,5.44,53.24,10.88,81.6,19.85,16.87,43.49,29.94,61.2,49-10.78,16.42-32.22,22.18-38.08,43.52,6.41,27.13,6.69,60.4,19,81.6,7.83,1.69,15.59,3.45,23.12,5.44,12.6,16.89,21.7,35,31.28,54.4,5.32,10.77,9.24,24,19,31.28,13.83-5.29,9.1-24.1,21.76-29.92,18.3-8.41,41.48,1.54,63.92,0,2.15,9.2,2.35,27.55,0,36.72-16.45,3.95-41.58-.78-55.76,5.44,22.92,1.1,60.56-2,85.68,1.36,2.28,2.26,1.08,8,1.36,12.24-25.88,4.49-54.86,5.89-84.32,6.8-3.55,2.8,1,13.65-2.72,16.32s-11.88.81-17.68,1.36c-4-2.37-.61-12.08-5.44-13.6,8.09,13.46-8.19,12.58-10.88,24.48-2.48,11,7.66,24.63,5.44,35.36-2.67,12.93-18.55,14.17-23.12,25.84,3.34,3,4.14,8.55,5.44,13.6-3.58,3.54-4.38,5.33-5.44,10.88-6.25,32.77,6,81.11,2.72,115.6,3.79,4.82,15.78,1.45,21.76,4.08,3.7,3.28-4.2,12.1,2.72,13.6,18.71,0.94,38.57-3.92,53-2.72,3,7.77.64,18.88,0,27.2-19,8-.07,20.87,1.36,35.36s-5.17,13.23-6.8,23.12c-3.56,21.61,7.81,45.77,2.72,66.64-11.61,1.82-27.84,3.28-32.64-5.44a188.87,188.87,0,0,1,2.72-34c-5.73-12.87-10.56-29.83-8.16-47.6,1.83-13.48,9.2-37.88-6.8-44.88-11.86,17.73,2.59,47.65,0,72.08-1.21,11.44-9,19.58-5.44,31.28,15.86,8.19,20.13,38.7,12.24,58.48,5.72,13.32,10.4,27.68,16.32,40.8,2.37,46.73,34.51,82.28,35.36,130.55,14.19,3,10,17.67,15,29.92,2.28,5.61,8.52,10.38,10.88,16.32,7.93,19.93,7.11,31.47,23.12,39.44v12.24c17,24.45,37.3,53.11,50.32,80.24,4.94,10.3,6.39,23.14,12.24,31.28,8.16,11.35,24.48,13.7,31.28,25.84,0.87,6.58-1.8,9.62,0,13.6,19.06,21.28,30.64,50,54.4,66.64-11.36,32.47-2.5,73.24,34,70.72,0.93,5.42,3.44,9.25,2.72,16.32-5.08,9.43-21,8.06-27.2,16.32,5.64,19.3,13,36.86,19,55.76-20.6,40.46,47.41,52,55.76,78.88-11,5.36-22.25,10.39-29.92,19,12.71,3.54,16.13,16.8,24.48,25.84,10,10.81,23.25,18.12,31.28,29.92,9.24,13.59,12.26,30,21.76,44.88,9.52,0.91,21-.16,27.2,4.08-2,12.06-6.38,21.72-8.16,34,6.82,5.5,11.49,20.05,21.76,31.28,3.93,4.3,12.59,7.36,19,13.6,5.53,5.35,8.94,13.78,13.6,17.68,23.94,20.06,55.34,14.77,77.52-1.36,9.77,8.82,19,18.22,24.48,31.28-6,12.12-18.93,17.33-27.2,27.2,3.64,7.69,4.56,18.11,8.16,25.84,37.06,9.17,68.28,24.19,95.2,43.52-0.3,24.79,6.51,49.7,2.72,73.44-1.41,3.12-9.71-.64-10.88,2.72,21.2-5.41,16.91,22.94,19,39.44s4.24,29.85,4.08,39.44c-17.93,13.35-39.44,23.11-58.48,35.36-2.8,4.74-11-4.39-9.52,4.08,8.36,1.37,18.68-8,28.56-13.6,10.26-5.83,21.49-11.9,31.28-16.32,15.46,25.33,25,56.6,40.8,81.6v32.64h-1.36c-1.83,6.58-3,21.2,1.36,25.84v25.84h-1.36c-7.07,7.89-19.5,10.42-24.48,20.4,4.37,9.68,10,18.12,13.6,28.56-3.12,5.49-8.59,8.64-9.52,16.32,4.76,8.39,12.9,13.4,21.76,17.68v31.28h-1.36c-3.32,77.22-.31,159.87,1.36,236.63v20.4a507.6,507.6,0,0,0,0,83v2.72c-2.21,39.67-2.53,81.47,0,119.67V4114C3378.94,4119.88,3378.94,4135.23,3381.2,4141.16ZM2183.09,254.43c4.61,13.07,24.13,23,32.64,36.72-27,11.73-57.95-4.64-91.12,0,6.32,86.61,39.69,146.17,58.48,220.31,51.18-2.12,113.66-2.81,164.55-4.08-9-22.7-15.23-54.05-15-81.6,0.53-4,6.41-2.66,8.16-5.44-6-4.69-7.79-12.71-12.24-19-8.15-11.58-20.7-23.74-25.84-35.36-10.23-23.1-12.58-50.7-23.12-76.16,4.31-14.73-3.74-26.44-8.16-36.72C2241.19,252.69,2214,255.47,2183.09,254.43Zm-247.51,40.8c-1.73,24.11-.92,50.76-2.72,74.8,0.21,4.29-7.58.57-5.44,6.8-1.54,49.85,3.54,97.92,0,145.51,0.4,4.93-9.2-.13-6.8,6.8,7.67,48.55,18.27,94.15,29.92,138.71,39.74-3.46,87.52-.9,127.83-1.36-0.27-24.61-4.68-58.22,1.36-80.24,38.3-.31,72.43-2.17,114.24-1.36-0.13-21.63-2.26-41.26-1.36-63.92-4.75-2.5-13.81-.69-16.32-5.44-19.71-75-53.17-136.32-59.84-224.39C2050,292.07,1997.14,290.75,1935.58,295.23Zm-884,5.44c-1,10.06,1.52,16.61,1.36,25.84,2.71,3.19,10.35,1.44,12.24,5.44-0.5,16.36-.57,32.3,4.08,43.52-4.06,2.74-12.83.77-19,1.36,4.52,54.56-4.94,94,0,145.51,28.34-2,59.51-1.24,89.76-1.36,1.81,4.08,1.38,10.4,1.36,16.32,7.86-1.06,11.63,2,19,1.36-0.75-87,.67-156.95,1.36-240.71C1129.06,297.6,1089,301.24,1051.61,300.67Zm330.47,73.44c-19.69-5.79-53.17-4-72.08-2.72,15,26.21,38,44.46,49,74.8C1344,464.8,1315.72,470,1299.12,487c12.68,14.57,27.36-1.36,46.24,0,5.81-9.15,6.17-23.74,16.32-28.56,10.44,18.11,10.12,47,20.4,65.28,14.58-9.05,22.47.51,32.64,2.72,9.4,2,18.07-2.66,28.56,1.36a71.13,71.13,0,0,1,2.72,20.4c-4,6.9-12.11,9.65-15,17.68,1.12,11.58,12.12,13.27,19,19-0.36,6-6.93,11.41-2.72,17.68,14.83,12.8,27.37-1.87,36.72-9.52,6.56,2.06,9.5,7.72,17.68,8.16,6.14-1.57,2.21-13.2,9.52-13.6,7.85,5,13.43,19,9.52,31.28,4.22,0.46,6.5-3.15,9.52,0,16.34,36.7,30.29,75.79,44.88,114.24-3.66,10.67-.19,31.07-1.36,47.6,6.21,0.59,15-1.37,19,1.36-0.48,16.34,2.41,29.32,1.36,46.24,11.16-.28,21.78,0,31.28,1.36-4.36-23.81-1.45-51.56-2.72-78.88-1.41-30.24-5.84-62.74,1.36-87,8.67-1,6.28,9.13,13.6,9.52h61.2V637.94c14.3-14.26,36.32-20.8,43.52-42.16,3.09-1,6.95-1.21,9.52-2.72q17.76-33.92,36.72-66.64c-70.74-1.51-141.54,2.52-205.35,0-15.87-12.7-37.38-24.37-55.76-36.72-14-9.37-17.53-7.61-16.32-25.84,1.05-15.85,0-36.22,1.36-55.76-11.55-.22-22.8-0.13-32.64,1.36v35.36c3.28,3.52,9.54,4.06,10.88,9.52-2.78,2.66-2.85,8-8.16,8.16-10.49-10.13-26.07-10.69-34-23.12-11.56-18.13-14.06-44.72-24.48-65.28a113.86,113.86,0,0,1-28.56-2.72c-0.84-11.86,1.13-26.51-4.08-34-1.74-.07-1.88-1.74-4.08-1.36C1384.62,347.63,1390,367.5,1382.08,374.1ZM398.84,402.66c-3.77-2-14.74,4.25-19,1.36-1.3,12.29,2.92,30.12-2.72,38.08-16.1-2.32-39.57,4.49-47.6-2.72-9.45,10.49-37.64,2.25-53,6.8-3.64,12,4.22,30.38-2.72,40.8-13.23-.82-29.81,1.7-40.8-1.36-3.23-.85.21-8.37-2.72-9.52H193.49c-2.51-3.83-.72-12-4.08-15-5.29,5.53-12.54,18.7-19,21.76-3.45,1.62-5.4-2.12-6.8,1.36-15,23.39-20.2,63.86-40.8,85.68,1.39,100.35,1.38,192.12,2.72,292.39h15c1.9-11.7,6.31-20.89,17.68-23.12,4.79,3.83,2,15.24,2.72,23.12,7.81,0.35,17.34-1,23.12,1.36,2.42,15.26.21,35.15,2.72,50.32,14,4.14,31.55,4.72,43.52,10.88,2.44,13,1,29.85,1.36,44.88,7.75,2.68,14.72,6.14,24.48,6.8,1.64-14.68-3.39-36,2.72-46.24,19.39,7.41,47,9.94,63.92,12.24v47.6c4.28,1.62,7.2,4.59,12.24,5.44,3.37-1.61,1.64-8.33,8.16-6.8,23.58,8.95,47.94,23.76,77.52,25.84,19.91,1.4,41.45-6.16,65.28-2.72,3.55-24.26-4.4-54,0-78.88,30.17-.25,59.67.17,77.52,12.24,5.77-1,10.42-3.18,17.68-2.72,0.6-27.34-2.42-51.07-1.36-78.88-7.24-2.37-30.89,2.59-36.72-5.44,6.76-7.29,23.94-4.17,36.72-5.44,1.67-25.53-3.43-57.83,2.72-78.88,36.47-1.72,76.66,1.69,110.16-1.36-18.4-2.65-51.26.36-73.44-2.72,1.25-11.82-2-24.32,0-32.64,3.48-3.32,10.76-2.84,17.68-2.72-14.61-65.63-33.38-127.09-49-191.75-13.36-1.94-26.83,5.56-35.36,0,0.18-9.69.2-19.23-1.36-27.2-30-6.27-57.77-14.77-89.76-19v-15H436.92c-9.7-7.08-20.8-12.75-29.92-20.4-10,1.38-15.31-1.92-13.6-12.24,19.72-9.58,28.05,10.17,43.52,15,22.79,7.06,44.24-1.21,70.72,0,1.23-9.85-7.64-9.59-15-10.88-5.46,2.71-3.6,12.72-13.6,10.88-7.44-2.54-2.79-17.16-4.08-25.84C452.27,425.16,423.48,415.74,398.84,402.66ZM164.93,432.58c7.24-1.38,3-14.28,4.08-21.76h-4.08C161.76,413.22,163.16,426.92,164.93,432.58ZM461.4,472c-7.72.89-19-1.79-24.48,1.36C442.82,474.9,457.59,476.79,461.4,472Zm886.68,23.12c-18.1-2.07-26.18,9-39.44,6.8-5.38-.9-7.9-6.69-13.6-9.52-2.33-1.16-6.39,1.2-9.52,0-4.92-1.88-4.36-6.15-8.16-6.8-9.61-1.64-17.7,3.88-31.28,1.36-3,9.73-13,12.42-27.2,10.88a34.49,34.49,0,0,1-2.72-10.88c-13.52-.53-19.2-8.91-36.72-5.44-2.22,5.72-8.28,7.72-10.88,9.52-0.86,17.73,1.75,38.92-1.36,54.4-10.29,2.79-27.51,1.39-35.36-2.72-1-5.94,3.67-10.6,0-15-28.33-.68-51.17,4.13-80.24,2.72-4.46,44-8.92,88.09-16.32,129.2-34.7-5.64-68-12.66-102-19,0.07,42,1.51,68.58,0,108.8h19c-3.08-2.92-4.12-13.23-1.36-17.68,10.46,0.94,16.74-2.3,27.2-1.36-0.27-5.25,0-10,1.36-13.6,2.35-2.63,11.14,1.17,10.88-4.08v-8.16c-14.62-4-38.42,1.24-53-2.72,0.47-9-1.21-20.25,1.36-27.2,11.8,0.92,12-9.73,19-13.6,13.23,0.82,29.81-1.7,40.8,1.36,2.61,3.29.86,10.93,1.36,16.32h13.6c-0.09-4.63-.42-9.49,2.72-10.88,6.14,1.11,17.13-2.62,19,2.72-5.23,23.78-2.14,55.89-8.16,78.88-25.52,1.94-50.49-3.91-73.44,0,4.78,2.47,6.58,7.92,6.8,15,10.66-2.5,9,7.35,13.6,10.88,9.52,0,16.73-2.31,27.2-1.36,3-1.54.09-9,4.08-9.52,18.18-3.12,42.12-.49,62.56-1.36,0.7,6.1,3.93,9.67,6.8,13.6-1.57,6.68-3.83,23,2.72,25.84,9.14-8.37.18-26.81,5.44-39.44,24.92-3.64,54.14-3,81.6-4.08,4.65,20.48.35,40.91,1.36,66.64,9.15-1.9,25.68,3,31.28-5.44,37.86,0.23,75.35.1,111.52-1.36-0.57-52.21,2-93,1.36-145.51,19-7.55,52.09-1.43,74.8-2.72,4.82-37.83,1.74-71.58,4.08-108.8-12.34-13.28-47.8-14-36.72-42.16a62.66,62.66,0,0,0,17.68-1.36c-2.84-14.84-5.58-29.78-10.88-42.16C1354.78,481.89,1354.58,491.66,1348.08,495.14ZM121.41,499.22v9.52c8.65,0.94,13.11-2.3,21.76-1.36-0.6-5.14,2.68-6.38,4.08-9.52C137.12,496.8,131,499.77,121.41,499.22Zm2079.36,19c2.68,72.55,2.7,154.46,4.08,220.31,64.49-.33,129.88.23,187.67-6.8-9.78-14.87-9.15-52-5.44-81.6-15.21-15.17-30.71-30-36.72-54.4,8.07-17.54,1.59-54.47,1.36-80.24C2299.17,514.21,2250.91,517.18,2200.77,518.26Zm-402.55,8.16c-15.66,24.23-28.11,51.67-43.52,76.16h-8.16c-6,19.39-23.55,27.22-39.44,36.72-3.26,13.74,2.26,27.84-1.36,40.8-24.56,2.19-60.86-1.34-77.52,0,0,24.49,1.38,47.58,2.72,70.72,40,0.7,80.64-3.41,115.6,0,2.68,3.67.81,11.88,1.36,17.68,9.43,0.09,10.81,8.23,9.52,19h20.4V752.17c7.81-4.43,19.59-4.89,27.2-9.52,7.25,4.53,16.73,6.84,19,16.32,30.83-1.23,42.5,31.09,70.72,24.48,8.18-1.92,12.73-15.29,20.4-20.4,15.13-10.09,31.4-6.78,47.6,1.36-14.14-82-38.65-153.56-50.32-238C1876.82,525.63,1837.4,526.9,1798.22,526.42Zm-416.14,6.8c-1.71-5.57-22.89-12.83-24.48-1.36,11,10.29,26.8,15.81,38.08,25.84-0.47,40.34,1.56,83.16-2.72,119.68-22.39,2.68-53-.07-76.16,1.36,0.46,49-.29,96.72-1.36,144.15,56.5-.47,105.09-0.67,159.11-2.72,4,1,.36,9.61,5.44,9.52,37.39,3.83,67.94-.15,106.07-1.36a335.91,335.91,0,0,0-1.36-40.8c-5.47-.87-14.46,1.77-17.68-1.36-4.63-21,1-39.91-1.36-57.12-2.35-17-14-33.67-20.4-49-7.27-17.36-10-35.59-19-51.68-6.2,1.13-12.6-3-15-9.52-1.22-6.66,4.49-6.39,2.72-13.6-7.95,2.76-21.29,5.72-29.92-2.72-7.16,21.33-58.72,15.26-43.52-15-13.51-1.45-14.69-15.23-19-25.84,6.07-8.21,21.3-12.22,15-28.56C1411.74,537.61,1398.71,521.83,1382.08,533.22ZM2194,593.06c-30.16.86-82.71-2.29-108.79,2.72-0.6,25.67.47,56.47,1.36,76.16-42,4.23-94.6-2.12-134.64,4.08,14.47,48.51,14,90,34,125.12,6.1,10.73,11.63,23.61,17.68,32.64,14,20.89,36.58,35.11,40.8,62.56,49.15,0.14,103.85.18,156.39-2.72C2199.14,787.05,2194.8,698,2194,593.06ZM776.9,701.85C760,723,743.88,745,733.38,772.57c10.44,2.71,10.73,15.56,21.76,17.68,8.14-3.65,15.88-7.69,24.48-10.88,17.48,6.65,15.29,21.39,13.6,43.52-1.85,24.2-6.71,33.93-10.88,51.68-2.17,9.23-2.58,19.1-5.44,27.2C769,924,750.38,943,763.3,960.24c27,0.23,57.16-3.53,81.6-1.36,1,14.8,6.41,37.77-1.36,49-17-.23-32,1.5-47.6,2.72-15,24.88-3.37,47.54,5.44,76.16,7.43,24.14,11.16,60.59,31.28,65.28,16.74,3.9,42.79-1.79,63.92-2.72,14.49-.64,29,1.12,43.52-1.36,1.58-24.7-3.42-42.82-2.72-66.64-2.36-2.62-9.45-.53-9.52-5.44-2-74.38-2.85-147-2.72-225.75-27.4-1.26-54.93,4.09-77.52,0,3-21.17-1-44.57,1.36-63.92,15,0.84,33.46-1.72,46.24,1.36v19c7.29-4,25.09,2.42,29.92-4.08,1.59-7-9.46-1.42-9.52-6.8a100.73,100.73,0,0,0-1.36-21.76c-9.91-1.43-20.82,2.32-27.2,0-2.63-3.31-1.31-11.38,0-15,10.28-3.77,29.24,1.13,39.44-2.72-2.19-35.41-.63-79.91-1.36-117-47.8-8.86-95.52-17.81-140.07-29.92C779.35,639.94,774.87,665.53,776.9,701.85Zm178.15-21.76c-1.14,3.4-10.63-1.56-9.52,4.08-0.59,6.48,8.51,3.28,5.44,12.24h43.52c5.94,8.44,9.39,28.9-8.16,27.2-1.22,6.66,4.49,6.39,2.72,13.6-8.13,3.65-24.62-1-32.64,2.72,18.78,3.43,45-.53,63.92,2.72,3.75-18.58,6.65-53.91,4.08-68-5.94.41,0.07,12.76-6.8,12.24-8.63-.89-21.35,2.31-25.84-2.72v-15C977,670.29,955.09,664.26,955.06,680.09Zm1461.94,53c-1.36,0-1.62-1.1-2.72-1.36-1.84.14-2.78,2.13-4.08,2.72C2359.37,757.4,2270,738,2204.85,746.73c3.41,47.36.47,101.07,5.44,146.87,20.4,0,41.28.48,59.84-1.36,8.92,25.54,16.26,52.64,28.56,74.8,56.68,3.36,105.28-2.8,160.48,0-5.06-26-6-47.8-8.16-76.16,12.76-6.67,41.75-16,57.12-6.8,0.82,22.19-24.06,33.33-40.8,21.76,15.47,17.48,30.24,6.7,44.88-6.8,12.38-11.43,25.82-19.6,17.68-38.08C2452.93,857.67,2418.71,811.65,2417,733.13ZM1999.5,839.21c-13.9-19.35-22-41.75-32.64-65.28-11-8.6-36.4-14-50.32-4.08-5.68,14.72-17.75,23-40.8,20.4-14.65-11.19-30.55-21.12-53-24.48-6.13-14.69-22.35-17.51-38.08-9.52-1.48,13,2.39,27.28,0,36.72-8,2.23-24.66,2.23-32.64,0-2.61-3.29-.86-10.93-1.36-16.32-4.3.22-8.21,0-9.52-2.72V756.25c-34.94.08-77.18,1.74-111.52,1.36,1,22.54,1.83,45.31,1.36,69.36,27.17,3.84,54.76.49,76.16,1.36-1.72,23.15,18.54,33.44,32.64,47.6,8.32,8.36,24,25,32.64,27.2,8.27,2.1,18.69-1,27.2-1.36,67.79-2.56,165.73.43,238-4.08C2033.29,872,2012.49,857.28,1999.5,839.21ZM918.34,767.13c7.5,1.57,2.72,15.41,4.08,23.12,2.36,2.62,9.44.53,9.52,5.44-0.8,5.79,1,9,1.36,13.6-9.44,6.27-33,4.62-46.24,2.72V793H855.78v51.68c25.09-1.79,52.86-3.43,76.16,0,1.4,24.1.68,52.37,0,73.44,10.55,0.78,24.31-1.64,32.64,1.36,3.37,23.83,8.13,46.26,8.16,73.44,61.94,2.5,118.57-3.61,183.59-2.72,2.78-2.2-.06-10,2.72-12.24,17.09-10.76,34.87-20.27,53-32.64,15.88-10.81,33.44-28.87,51.68-34,15.93-4.48,33,1.74,53,1.36,1.08-25.1,1.07-52.55,1.36-81.6-8.93-5.86-18.41-4.7-31.28-4.08-26,1.24-58.55-.94-84.32,0-7.08,11.38-32,4.53-43.52,5.44-2.73-21.73,1-41.64,0-65.28-18.49.62-48.94,0.87-70.72,2.72-0.66,12.49,1.47,27.77-1.36,38.08-6.41-.06-10.3,2.39-16.32,2.72-6.46-9.86-2.78-29.85-8.16-40.8-18.15-1.13-35.36,2-50.32,0-3,2,.8,10.77-4.08,10.88-12.33,3.08-30.3.52-44.88,1.36-1.87-4.3-.3-4.54,0-9.52-13.32.33-10-7.78-13.6-16.32C931,751.72,934.24,769,918.34,767.13ZM732,771.21c-4.13.85-11.71-1.74-13.6,1.36C722.56,771.72,730.14,774.31,732,771.21ZM1325,831c0.27,51.38,0,101.89,2.72,156.39,23.67-.86,52.94-3.2,76.16,0,2.12,50,3.87,100.4,4.08,152.31,71.57-.14,163.13-2.15,227.11-4.08,11.74-.35,25.62,5.26,32.64-2.72,3.06-9.41-5.77-6.92-5.44-13.6V1103c10.86-9.74,5.11-25.51,4.08-42.16-1.46-23.46,1.11-49.87,0-72.08-13-23.72-22.49-50.95-32.64-77.52-1.62-5.7,5.73-2.43,6.8-5.44-22.47-7.58-13.31-38.61-15-66.64-37.18-8.75-71.77.93-108.8,1.36-14.51.17-28.86-5.41-44.88-2.72-5.38-.06.23-11.11-6.8-9.52C1421.29,832.18,1368.67,827.16,1325,831Zm308.71,4.08c-2.22,21.07.78,39.81,0,57.12,8.37,6.59,20.57,9.35,24.48,20.4-2.36,3.53-9,2.76-15,2.72,8.43,15.61,14.08,39.43,23.12,58.48,2.68,5.65,7,8.92,8.16,15,4.11,21.16-1.51,50.57,0,74.8,0.8,12.92,3.29,23.43,1.36,35.36-0.14,6.66-9.45,4.15-6.8,13.6,4.84,5.58,8.8,12,6.8,24.48,15.66-1,37.71-5.83,51.68,0,12.35-9,42-.6,58.48-5.44-0.19-24.44-4.31-50.38-1.36-74.8,74.74-2.24,158.95-4.43,242.07-5.44,0.76-12.18-5.63-23.05-4.08-35.36,1.68-13.26,15.13-25.5,17.68-40.8,3.95-23.64-.93-42.61-1.36-69.36-85.59.56-181.59,2.43-270.63,4.08-22.81-20.26-46.48-39.65-66.64-62.56V835.13C1678,836.85,1658.8,834.75,1633.67,835.13Zm824.13,66.64c13.11-7.06,38.77,10.59,43.52-13.6C2488.61,889.17,2460,885.75,2457.8,901.76Zm-247.51,0,5.44,300.55c106-.18,226.9-8,325-5.44-5.24-25.62-20-53.4-27.2-81.6,0.92,12.25-8.7,14-17.68,16.32-11.84-4.95-11.83-23.62-17.68-36.72-4.51-10.08-18-16.35-10.88-31.28-4.38-8-17.23-14.27-15-24.48,15.47-.41,19.32,22.31,40.8,20.4,6.67,9.79,4.56,36.18,20.4,28.56-18.77-30.64-43.25-67.36-51.68-112.88-53.31-3.37-110.92,3.1-167.27-1.36-12.68-21.32-23.2-44.8-28.56-73.44C2248.43,901.82,2229.58,902,2210.29,901.76Zm-163.2,2.72c-1.3,25.56,6,48.38,1.36,73.44-2.72,14.77-16,27.5-17.68,38.08-1.78,11.42,2.43,29.07,4.08,40.8,1.88,13.41,3.27,28,6.8,38.08,8.3,23.76,31.23,38.27,39.44,59.84,16.8,5.87,25.59,19.74,35.36,32.64,12.09,2,18.79,9.32,25.84,16.32h65.28c-1.1-84.87-3-182.62-6.8-272-0.52-12.39,3.35-25.17-2.72-29.92C2147.54,904.66,2094.09,904.5,2047.09,904.48Zm-780.61,13.6c-34.48,20.37-65.4,44.31-100.64,63.92-2.42,4.38.53,14.12-5.44,15-67-.32-135.85,8.22-195.83,1.36,1.19-27.93-3.2-50.3-6.8-73.44-9.55-.94-14.92,2.3-24.48,1.36-0.81,44.35.44,98.36,2.72,144.15,2.44,3,9.35,1.53,9.52,6.8-0.43,24.91,3.49,45.47,2.72,70.72,48.58,1.39,99.5-2,142.79-1.36,0.94,11.75,1.88,23.5,1.36,36.72,20.51-3.06,46.61-.54,69.36-1.36,0.8-11.89-1.68-27.06,1.36-36.72,77.12-4,158.87-3.41,238-5.44-2.1-48.67-2.69-98.86-5.44-146.87-20.48,4-52.48,3.67-74.8,1.36-1.94-23.9-2.41-49.27-2.72-74.8C1301.12,918.8,1284.84,917.41,1266.48,918.08Zm524.94,145.51c-2.35,28.78,7.37,53.79,0,76.16-17.19,4.11-44.84-2.23-59.84,4.08,9.43,21.85,20.33,42.22,27.2,66.64,117.67-2,225.86-3.64,333.19-5.44,0.56-6.75-.39-23,0-34-4.53-5-11.55-7.49-17.68-10.88-16-32.54-45-52.06-46.24-99.28C1950.38,1058.79,1865,1064.49,1791.42,1063.6ZM2485,1092.16c5.33,11.84,4.1,25.18,12.24,31.28,9.33-.19,9.61-9.43,10.88-17.68,0.94-2.68,7.59.33,8.16-2.72-2.68-.94-3.62-3.63-4.08-6.8-20,7-17.94-19-24.48-29.92-3.64-1.35-7.17-2.8-12.24-2.72C2467.31,1077.52,2480.69,1082.6,2485,1092.16ZM1788.7,1301.59c-29.12-46.13-38.05-112.45-68-157.75-13.52-4-28.9,1.91-44.88,0,4.55,85.16,2.87,174.34,8.16,255.67,44.9,5.61,88,1,138.72,1.36,1.27-9.24-10.92-9.65-13.6-17.68-2.84-8.51,2.86-19.44-2.72-28.56-4.27-3.83-12.78,3.1-17.68-1.36C1791.21,1331.7,1786.66,1314.61,1788.7,1301.59Zm-495-151c3.08,52.39,1.58,108.09,4.08,163.19,0.58,12.77.7,42.39,6.8,49,3.69,4,22.85,8.44,32.64,9.52,17.44,1.91,37.74-1.36,57.12-1.36,37.41,0,75.34-2.64,110.16,0,28.34,2.15,53.55,12.8,80.24,15,12.65,1,25.89-1.52,38.08,0,19.74,2.46,35.29,13.9,53,12.24-5.91-82.52-3.44-166.65-8.16-254.31C1548.14,1145.75,1416.79,1147,1293.68,1150.63Zm-122.4,1.36c-2.82,49.83-.93,98.71,1.36,146.88,35.66,14.1,74.2,34.1,106.07,51.68,3.8,2.1,9.67,5.89,13.6,4.08-4.74-65.52-4.13-136.4-6.8-204C1245.95,1149.59,1210.54,1152.72,1171.29,1152Zm927.48,59.84c-12.65,3.82-31.23-1.09-46.24,1.36-5.37.88-8.9,4.11-13.6,4.08-4.39,0-8.94-3.62-13.6-4.08-7.84-.77-16.33,2.73-24.48,2.72-77.23-.11-158.28,1.7-238,2.72,10.43,25.38,14.17,57.45,32.64,74.8,3.87,17.19.86,33.95,1.36,51.68h12.24c7.66,11.18,9.13,19,8.16,34,8.73,3.06,10.58,13,13.6,21.76,73.44,0.75,148.27-3.16,227.11-2.72,2.57-2,.31-8.76,5.44-8.16,4.93,0.06.32,9.65,6.8,8.16,21.26-.5,44.76,1.24,63.92-1.36,2.31-5.85,10.85-5.46,17.68-6.8,3.3-.78-0.64-8.8,4.08-8.16,5.27,4.92,11.26,9.3,21.76,5.44,4.21,1.23,3.62,7.26,8.16,8.16,32.33-3.48,74.78,3.16,96.56-10.88-7-27-24.43-43.57-36.72-65.28-28.49-3-53.78-19.84-49-47.6-7.6-11.44-22.25-15.82-36.72-20.4-8.17-19.48-21.4-33.9-31.28-51.68-14.74-1.13-20.84-10.9-28.56-19C2099.36,1190.66,2101.76,1203.94,2098.77,1211.83Zm364.47-6.8c-101.54,4.72-216.95,3.74-315.51,6.8,3.14,7.75,12.84,20.7,16.32,32.64,17.36,4.86,33.43,11,40.8,25.84-4.51,28.72,20.28,38.19,44.88,42.16,15.72,21.45,30.8,43.54,42.16,69.36,11.36,2.24,24.49,2.7,35.36,5.44,6.36,14,11.13,29.66,16.32,44.88,67.33-5.52,132.24-2.26,199.91-6.8,16.19-1.09,33.76.72,43.52-1.36,13.28-2.83,23.64-19.45,32.64-27.2-10.38-5.82-19-13.6-29.92-21.76-8.46-6.34-24.31-14.42-28.56-24.48-8.84-20.91-2.16-54.31-10.88-83-3.42-11.22-11.16-19.84-12.24-28.56-1.48-12,1.78-21,1.36-31.28C2520.59,1201.93,2489.86,1203.79,2463.24,1205ZM1616,1392.71c-7.94-.61-18.24,3.2-25.84,2.72-16.59-1-33-9.05-50.32-12.24-33.86-6.21-67.6-1.09-102-2.72-34.76-1.64-72.11,4.28-104.72,0-37.09-4.87-61.68-27.29-92.48-42.16-24.23-11.69-49.5-23-68-29.92,1,47.09,3.2,98.55,2.72,142.8,69.71-.22,161.38-3.91,236.63-2.72,4.59,153.16,10.63,304.88,12.24,461,85.12-5.26,176.54-2.89,261.11-5.44-3.61-34.28-2.16-74.47,6.8-100.64,1.27-7.61-8.41-4.28-8.16-10.88-0.63-25-1-49.78-1.36-76.16-0.44-28.54-.94-57.88-1.36-87-0.25-17.62-4.87-34.83-5.44-53-1.67-53.81-2.64-111.29,0-170C1655.05,1407.84,1635.94,1394.23,1616,1392.71Zm646,8.16c-25.57,4.85-50.79-1.13-80.24,2.72-7.17-7.53-21.72-7.94-35.36-5.44-2.81,3.53.55,13.25-5.44,13.6-6.08-2.43-8-5.55-15-6.8-41.44-7.45-92.74,6.88-134.64,1.36-1.18,13.78,3.42,33.34-5.44,39.44-15.72-.29-21.26-3.09-35.36,0,0.22,38.73,1.12,73.4,2.72,106.07,10.11,3.53,26.68-.22,35.36,1.36,4.57,12.72.12,23.42,0,38.08,11.72-1.57,30.63-2.71,42.16,0,2.52,2.92.92,10,1.36,15,12.89,6.61,26.2,12.78,38.08,20.4,2.91,13,.32,31.41,2.72,44.88,15.2,0.69,30.13,1.12,35.36-8.16,61.34,0.16,119.78-1.34,178.15-4.08,12.46-.58,25.48,3.15,39.44,2.72,52.32-1.61,101.75-1.48,144.15-4.08-12.75-26.24-36.65-41.33-38.08-78.88-33.62-6.73-51.51-29.18-84.32-36.72-13.54-22.43-23.38-42.07-20.4-72.08,1.2-12.07,9.87-22.85,9.52-34-0.52-16.58-13.61-28.1-15-42.16C2296.42,1382.68,2278.92,1397.65,2262,1400.86ZM1879.82,1409c-68.67-1.66-135.16,3.84-195.83-1.36-7.44,88,3.63,177.77,5.44,265.19,33.36,1.38,72.76-1.25,104.72-1.36,14.85,0,25.32,2.38,34-4.08,68.58,6.26,162-3.38,236.63,4.08-1.82-13.13-1.16-28.76-2.72-42.16-16.17-7.86-36.73-11.32-40.8-31.28-14.29-1.88-27.83,3.68-39.44,0-4.1-11.59,1.53-24.59,0-38.08-11.89-.81-27.06,1.68-36.72-1.36,1.47-41-5.27-80.71-1.36-119.68,14.7-2.2,23.26-4.89,38.08-1.36,0.73-9.7,3.51-17.34,2.72-28.56C1955.61,1403.51,1919.23,1410,1879.82,1409Zm465.1,31.28c-16.42,28.57-9.58,73.26,8.16,96.56,33.63,6.26,50.22,29.57,84.32,35.36,8.15,10.41,3,23.35,6.8,34,2,5.49,9.54,12.12,13.6,17.68,14.27,19.54,24.21,38.78,32.64,62.56,11.73-17.1,38.15-6.2,63.92-9.52,16.31-2.1,30.57-14.82,40.8-16.32,9.8-1.44,22.6,2,34,2.72,19.43,1.18,44.82,9,54.4-6.8-17.12-6.23-52.37,5.55-61.19-5.44,3.32-7.79,17.21-6.36,27.2-6.8,17.63-.78,36.19-0.49,47.6,0,4.55,2.7-.51,15,9.52,12.24,3.68-2.67-.83-13.52,2.72-16.32,21.06-3.87,51.73,1.87,68-6.8-21.23,1.5-49.71,2.79-70.71,0-2.52-2.92-.92-10-1.36-15,16.65-4.2,39.91-1.8,58.48-4.08,0.7-9.31-2.41-14.81-1.36-24.48-21.48.1-34.08,0.73-54.4,1.36-9.76,10.64-8.22,32.58-29.92,31.28-18.57-26.76-29.42-61.24-49-87-7.53-2-15.29-3.75-23.12-5.44-13.85-24.35-22.78-66.2-19-99.28C2508.21,1437.71,2422.87,1435.31,2344.92,1440.3Zm76.16,229.83c-7.37.13-14.75-2.15-21.76-2.72-24.37-2-49.57,2.48-74.8,2.72-12.92.12-25.56-3.42-38.08-2.72-54.18,3-112.4,3.32-171.35,4.08-8.55,9.58-28.56,7.71-40.8,13.6-4.36,6.13,0,15.18-1.36,25.84-7.38,4.86-7.73,16.75-6.8,29.92-0.42,5.4,9.51.47,6.8,8.16,5,59.63-6.9,116,9.52,160.47,3.62,9.8,11.48,17.71,13.6,27.2,3.3,14.77.21,28.45,4.08,40.8,130.61-8,276.88-6.12,412.07-12.24-0.19-58.78,1.11-105.17-12.24-148.24-5.8-18.71-15.8-33.64-17.68-53-2.17-22.47,7.08-46.52,2.72-70.72-1.69-9.41-8.87-15.66-10.88-27.2C2453.67,1663,2435.39,1669.87,2421.08,1670.13Zm174.07-1.36c-20.4,16-55.87,17.5-88.4,15-15.39,7.51-15.28,26.72-16.32,47.6-2.12,42.43,9.12,56.16,17.68,85.68,7.12,24.53,7.22,48.4,12.24,72.08,43.17-4.63,97.39,4.86,136-9.52,4.57-35.49-7.83-86.91-2.72-122.39,0.68-4.75-.48-7.34,4.08-9.52-16.23-18.83,15.57-24,19-38.08,2.95-11.93-6-20-4.08-35.36C2646.23,1673,2622,1669.6,2595.15,1668.78ZM1689.43,1681c0.92,37.77.16,67.74,2.72,107.44,1.07,3,8.42-.26,6.8,5.44-2,14.74,3.24,36.78-8.16,42.16,3.16,8.17.46,22.2,1.36,32.64,21.69-3.24,34.58-15.28,55.76-19,3.12,4.59-.23,15.65,2.72,20.4,19.27,1.45,50.88-8.12,61.2,5.44,9.33-.86,21.85,1.29,27.2,0-1.75-27.81.21-54.63-1.36-81.6-2.16-37-3.44-79.67-8.16-117C1796.12,1684.36,1736.65,1679.59,1689.43,1681Zm337.27-5.44c-7.91-.89-16.36.94-25.84,1.36-54.21,2.38-111.24-3.93-160.48,2.72,1.67,60.89,5.11,120,5.44,182.23,39.12,1,74.44-1.72,112.88-1.36,4.36,1.53.18,11.6,6.8,10.88,34.06-3.42,68.95,2.05,102-2.72-0.51-40.41-4.67-77.74-1.36-115.59-2.07-2.46-9.33.26-8.16-5.44,2-11.77.78-21.83,0-34,9.78-7.07,4.71-27.86,9.52-35.36C2051.61,1684.67,2038.89,1676.94,2026.69,1675.57Zm-335.91,204c4.71,75.93,3.06,159.33,8.16,238,39.42-15.43,85.13-24.57,125.12-39.44,0.7-7.91-1.53-18.76,1.36-24.48,25.07-3.95,59.22,1.19,84.32-2.72,3.62-4.47-3.24-12.93,2.72-16.32,22.44,0.86,38.06.13,61.2,0,4.87-2.48-2.22-16.5,4.08-20.4,47.43,2.25,82.18-.12,114.24-13.6-1.09-27.76.05-47.07-5.44-66.64-5-17.88-21.23-31.19-17.68-57.12-35.49,3-76.51.55-114.24,1.36-3.4-1.14,1.56-10.63-4.08-9.52-35.19.17-68.47,2.24-104.72,1.36-0.85,5,2.21,14-2.72,15-15.31-2.37-37.59,2.23-46.24-6.8h-53c-3.71-3.54,2.07-16.58-4.08-17.68C1722.86,1866.31,1707.36,1873.47,1690.79,1879.57Zm949.24,15c-8.13,1.61-18.75-.45-28.56,0-33.2,1.51-62,1.09-91.11,2.72-1.5,30.68,3.69,68.07-4.08,92.47,11.89,0.81,27.06-1.67,36.72,1.36,3.58,14.22-2.24,46.83,9.52,57.12-0.34,22.38-5.18,47.33-1.36,69.36,30-.81,63.33,1.68,91.11-1.36,12,9.8,38.73,4.06,57.12,4.08-2.71-18.6-11.73-30.88-16.32-47.6,5-14.36,7.56-31-1.36-44.88-3.46-5.38-9.49-6.65-10.88-12.24-2.63-10.6,4.16-21.09,5.44-29.92,4-27.38-12.87-58.72,1.36-80.24h17.68c16.22,29.46-7.95,76.43,13.6,100.64-5.55,6.23-2.8,20.78-5.44,29.92,5.74,3.29,9.75.83,19,1.36,1.56-25.38-9.94-60.73,4.08-77.52-1.73-12.45-10.82-19-10.88-29.92-0.05-10.78,12.25-17.44,9.52-31.28-15.87,2.79-39.91,4.41-55.76,2.72-3.29-3.69,1.49-7.55,0-13.6C2663.85,1881.87,2648.81,1892.79,2640,1894.53Zm-538.54,89.76c-5.81,77.91,2.18,168.49,2.72,244.79,22-2.56,35.79-22.13,62.56-24.48,24.78-2.17,54,7.14,80.24,1.36,11.94-2.63,19.34-17.57,31.28-20.4-7.68-20,5.29-35.43,8.16-53,16.35-8.13,26.48-22.48,40.8-32.64,22.36,1.72,38.83-7.14,59.84-12.24,17.38-4.21,34.55-5,47.6-8.16,25-6.08,29-39.79,44.88-55.76,6.34-6.37,17.7-9.33,23.12-17.68,5.76-8.87,6.4-22.06,8.16-32.64C2377.69,1977.86,2233.17,1979.08,2101.49,1984.28Zm412.07,13.6c-0.19,5.25-4.6,6.29-4.08,12.24-6.18,9.12-16.79,11.33-24.48,19-13.87,13.91-15.93,38.83-34,49,8.17,7.25,16.08,14.74,13.6,32.64,6.23-3.12,13.32,0,20.4,0,5.13,5.75,6.44,15.32,5.44,27.2,5.93,0,12.6-.81,15,2.72,0.81,35.36,1.19,63,4.08,96.56-0.34,4.19-4.9,4.17-6.8,6.8,3.33,26.59,2.7,57.14,2.72,87,7.54,14.32,28.69,24.55,49,17.68-1.61-99.68-12.6-198.66,0-293.75-9.25-13-5.94-38.48-9.52-57.12C2533.32,1996.53,2523.2,2001.64,2513.56,1997.88Zm-474.62,27.2c-16.83.73-32.9-6-55.76-2.72-0.55,5.79,1.32,14-1.36,17.68-20.29,3.67-39.26,2.5-62.56,2.72-3.81,4.22,3,11.75-4.08,13.6-26.09,5.34-55.08,3-83,4.08-0.68,7.48,1.5,17.82-1.36,23.12-40.27,17.76-91.57,24.48-130.56,43.52,6,95.29-6.71,185.21,4.08,272,63.82-28.56,129.14-57.3,194.47-85.68,65.83-28.59,134.37-50.22,197.19-83-3.21-64-1.75-136.84-5.44-201.27-0.34-5.9,3.77-15.87-4.08-19C2070.23,2011.89,2054.2,2024.42,2038.93,2025.08Zm401.19,59.84c-37.79,6.27-74.19,20.89-111.52,23.12-9.32,12.44-22.64,20.88-35.36,29.92a91.39,91.39,0,0,0,1.36,76.16c12.13,24.83,40.66,42.21,44.88,61.2,5.39,24.23-12,69.14,13.6,76.16,13.25,3.63,36.87.55,49,0,34.74-1.58,70.74-5.49,107.44-1.36,0.57-7.9-9.54-9.11-12.24-17.68-7.5-23.79,5.06-66.17-2.72-93.84,0-5,8.26-1.72,6.8-8.16-2.41-29.24-3.45-57.46-4.08-84.32-6.93-1.49-12.09,3.71-15-1.36-0.74-8.78,1.58-20.62-1.36-27.2-8.56-1.35-18.09,2.19-23.12,0-3.42-8.5-1-15.08-2.72-25.84C2448.81,2090.73,2447,2085.25,2440.12,2084.92Zm209.43,39.44c-29.42,2.19-62.92-1.19-93.84,1.36-2.55,45.18,3.7,93.3,1.36,142.8,11.31,17.25,2.8,54.32,5.44,80.24,45.67-.65,77.83-1.4,121-2.72,6.5-24.77,10.72-51.84,16.32-77.52,16.13-.43,45.23,3.43,58.48-4.08,1-11-11.19-8.76-13.6-16.32,1.11-4.33.87-10,2.72-13.6-12.51-34.63-25-69.28-36.72-104.72C2690.27,2128.06,2661.76,2134.36,2649.55,2124.36Zm-372.63,70.72c-17.66,20.66-44.65,20.48-81.59,20.4-10.11,0-20.56-3.91-29.92-2.72-20.78,2.64-43.19,22-61.2,25.84,1.19,34.62-5.08,76.71,10.88,96.56-8.4,6.8,2.48,11,0,23.12,73.07-8,145.53-3.15,221.67-5.44-10.32-14.47-4.06-49.17-5.44-77.52-17.35-26.18-41.91-45.13-50.32-80.24h-4.08Zm-383.5,130.55c2,75.95,1.67,154.27,4.08,229.83,34.87-7.36,82.89-3.58,125.12-5.44,32.88-1.45,65-1.1,96.56,0,5-59.26.54-121.38,1.36-182.23-1.6-3.84-12.4,1.52-12.24-4.08,4-11.65-6.62-16.77-6.8-23.12-0.12-4.37,6-4.12,2.72-9.52-13-19.19-6.68-57.69-8.16-88.4-0.08-.83-0.2-1.61-1.36-1.36C2030.08,2271.9,1957.75,2294.76,1893.42,2325.63Zm901.64,20.4a29.36,29.36,0,0,0-1.36-12.24c-4.09-5.43-10.64-8.4-15-13.6-4.74-17-8.34-35.17-20.4-44.88-15.55,3-37,.18-53,2.72-2.27,24.47-10.1,43.39-12.24,68,14.92,0,30.66-.74,42.16,2.72,5.9,22.78-2.57,48,1.36,72.08,32.51-2.4,68.81-1,103.36-1.36C2825.45,2394.52,2814.43,2366.1,2795.06,2346Zm-1090.68,62.56c3.18,77.63-.83,164.49,6.8,236.63,12.94,2.26,3.48-10.37,9.52-13.6,16.15,1.5,35.61-.33,55.76-1.36,0.37-4.62-1.05-11,1.36-13.6,9.78-9.82,25.23-10.95,35.36-19,4.13-3.29,5.3-9.18,9.52-12.24,14.44-10.44,32.84-11.62,47.6-23.12,21.4-16.67,17.68-41.82,17.68-81.6,0-51.56-.3-117-5.44-152.31C1823.28,2355.22,1763,2381,1704.39,2408.58Zm854-51.68c10.74,67.48.87,147.19,5.44,220.31,58.28-.68,109-0.65,165.91-2.72,2.08-75.66-4.11-149.16,0-219C2668.63,2349.48,2620.8,2359,2558.43,2356.91Zm-429.74,6.8c0.38,61,2.31,131.15,0,183.59,12.53,0.71,25.45-3.79,36.72,0,3.27,35.37,0,79.17,6.8,114.24,111.84-2,219.43-3.91,331.83-4.08,2.57-81.54-11.78-166.42,1.36-238-9.49-13.17-4.25-41.08-6.8-61.19C2369.35,2359.22,2252,2361.06,2128.69,2363.71Zm378.06-5.44c-2.11.35-.94,3,0,4.08,0.73,13.29-1.29,26.58,1.36,39.44,1.36,6.6,5,11.51,5.44,17.68,1.55,21.72-8.81,46.63-6.8,72.08,4,50.44,4.73,108.41,5.44,164.55,18.5,0.2,27.73-1.87,44.88-1.36-4.91-98.77,3.85-208.5-6.8-296.47h-43.52Zm-854,13.6v63.92c-20.33,10-43.31,17.44-63.92,27.2,3.31,42.49,4.14,94.66,1.36,138.71-100.73,1.13-222.2,9.2-322.31,9.52-7.36,0-15.9-2.41-23.12-1.36-13.82,2-25.61,14.16-36.72,21.76,1.28,41.78,1.1,85,2.72,126.47,154.54-2.5,331.52-10.2,490.94-12.24-0.23-132.38-3.76-249.47-6.8-374C1679.81,2370.34,1669.33,2372.25,1652.71,2371.87ZM2736.58,2429c1.32,42.22,1.69,97.12,1.36,145.51,27.25-1.69,50.82-1,74.8-1.36,13-.19,25.58-1.48,38.08-1.36,26.93,0.26,59.14,2.44,80.23,0,2.56-.3,8.57-0.74,9.52-5.44,1.12-5.8-6.62-7.76-9.52-10.88-15.87-17.06-28.08-43-43.52-61.2V2482c-19.87-12.31-35.68-28.69-42.16-54.4C2809.07,2428,2770.84,2426.52,2736.58,2429Zm-911.16,164.55c-2.41,1.91-3.61,6.42-5.44,8.16-10.52,10-25.7,10.25-35.36,20.4-0.33,5.56,1.32,13.11-2.72,15-18.13.91-34.24,3.84-54.4,2.72-1.78,2.26,1.39,9.38-2.72,12.24-6.81-.92-10.53,1.26-16.32,1.36-0.88,32.16,2.34,60.22,1.36,92.48,64.19-.91,118.29-1,182.23-1.36-3.08-63.11,1.9-134.26-4.08-194.47C1878.75,2576.41,1845.16,2577.91,1825.42,2593.54Zm73.44-29.92c-1.09,59.1.7,118.67,1.36,179.52,90.72,1.11,182.86-4.42,261.11-4.08,3.9-65.87-3-121.95-2.72-185C2071.77,2560,1978.88,2553.69,1898.86,2563.62Zm840.45,19c2.15,53.16,2,108.57,2.72,163.2,80.93-2,153.73.67,225.75-2.72,2.56-11.18-3.63-13.6-6.8-19,1.61-3.83,10.16-.72,9.52-6.8-6.9-17.58-13.51-35.45-19-54.4,4.49-11.83,22.18-10.46,28.56-20.4-0.64-6.62-8.81-5.7-16.32-5.44-15.81-11.83-29.55-25.76-24.48-58.48C2880.27,2582,2806.93,2579.18,2739.31,2582.66Zm-175.43,2.72c0.46,64.75,4,127.6,4.08,189,4.62,3.54,17.14-.82,21.76,2.72-1,12.75,1.44,22.14,1.36,34,21.57-3.95,44.31-.79,66.64-5.44,4-17.26-3.39-39.37,1.36-57.12,25.47,0.08,48.45-2.33,74.8-1.36-0.06-56.7-3-111.14-2.72-164.55C2673.56,2584.1,2618.57,2585.52,2563.87,2585.38Zm-204,80.24c-0.35,127.74,4.53,250.24,8.16,374,23.19,0.17,49-3.23,73.44,0,1.87,5.84-1.07,16.48,4.08,19,6.42,2.31,19.49-.43,27.2-1.36,0.55-5.8-1.32-14,1.36-17.68h27.2c-1-11.44,3.88-17,8.16-23.12,2.44-23.2-.68-44.14-1.36-68,9.06-3.17,9.94-14.54,12.24-24.48h16.32c0.95-15.37-2.9-35.54,9.52-39.44-5.2-22.85,4.86-45.06,0-68,0.56-5.34,8.74-3.05,9.52-8.16,5.31-48.92,3.32-96.78,2.72-146.87C2495.27,2666.51,2430.17,2667.42,2359.88,2665.62Zm-8.16,84.32c-0.6-15.94.66-45.8,0-66.64-0.53-16.49,1.46-17.43-10.88-16.32-53.12,4.77-112.47-1.06-170,2.72,0.09,43.95-3.45,86.58,0,129.2,0.61,7.48,3.84,15.41,4.08,23.12,1.37,44.78-5,94.33,0,137.35,0.58,5,.26,9.5,4.08,13.6-12,15-3,50.48-1.36,69.35,60.71-.94,125.66,2.36,182.23-2.72C2356.87,2959.24,2354.93,2835.48,2351.72,2749.93Zm-448.78,1.36c3.37,96.91,3.82,194.07,5.44,295.11,86.69,3.68,175-2.64,261.11-4.08-8.5-71.18,2.47-149.12-2.72-224.39-1.62-23.57-8.8-46.67-5.44-70.72C2086.59,2749,1992,2750.07,1902.94,2751.29Zm-193.11,4.08c1.44,51.23,3.81,99.74,2.72,151-12.52.18-23.14,2.24-36.72,1.36-2.95,61.42,5.14,127.78,5.44,186.31,46.41-3.45,91.77-8,142.8-6.8,2.25-28.65-6-61,1.36-85.68,26.71,10.47,48.88,32.72,74.8,39.44-2.68-91.39-.83-196.35-5.44-289.67C1836.3,2755.83,1766.12,2748.65,1709.83,2755.37Zm1256.59-4.08c-17.61-3.06-40.46,3.57-59.84,2.72-74.93-3.29-167.82.06-240.71,2.72,1.9,44.65-.6,80.8,2.72,126.47,16.27,16.29,35.2,37.21,51.68,53,5.62,5.39,13.82,13.92,17.68,12.24-0.38-21.44-3.48-47.21,0-68,103.8-3.09,209.23-3,310.07-6.8-11.84-17.62-31.09-27.84-40.79-47.6-5.77-1-16.11,2.51-17.68-2.72,7.11-13.75,22.29-19.42,34-28.56C3005.35,2787.76,2986.6,2754.8,2966.42,2751.29Zm-1755.69,16.32c2.61,40.27-1.11,72.67,4.08,107.43,149.82-6.58,312.89-11.32,459.66-10.88v35.36c10.11-.78,23.39,1.63,31.28-1.36-4.16-47.62-.41-95.42-4.08-144.15C1541.73,2756.76,1367.69,2761.81,1210.73,2767.61Zm1351.79,16.32c2.31,8.57,1.06,20.7,1.36,31.28-2,3.49-9.32,1.57-9.52,6.8,0.45,25.12-2.34,45.61,0,69.36-15.79.52-5.86,26.78-10.88,38.08a23.76,23.76,0,0,1-17.68,1.36c2.66,13.54-2.61,19.15-9.52,23.12,1.61,23.34,3.31,43.4,1.36,69.35-9.19,2.14-6.69,16-10.88,23.12h-25.84c-2.4,22.08-5.86,43.1-4.08,69.35,110.1,0.05,228.86-7.1,340-5.44,5.16-20.79-11.41-39.59-1.36-58.48,6.83-.49,12.33.36,16.32,2.72-1.09-8-10.38-7.75-10.88-16.32,5.42-9.08,1.55-27.45,2.72-40.8,14.49-4.56,10.45-19,9.52-36.72-0.3-5.28,8.21-1.76,8.16-6.8,4.62-23.54-4.61-45.56,1.36-68-34.51,2.27-62.94,2.29-99.28,2.72-1.53,25.35,6.49,54.83,0,76.16-14.84-9.26-29.11-22.47-43.52-38.08-10.41-11.28-34.91-27.77-39.44-42.16-6.57-20.88,1.7-42.6-2.72-69.36-27.91.31-46.42,1.64-72.08,4.08-7.69-6.82,3.24-32.26-6.8-36.72C2574.75,2784.38,2568.43,2784,2562.51,2783.93Zm490.94,95.2c-68.67,9-138.08,1.26-202.63,8.16-8.79,24.72,10.18,64.55-9.52,80.24,4,12.45-3.11,20.75,0,32.64-1,4-9.61.36-9.52,5.44-0.79,11,1.66,25.23-1.36,34,20.37,26.77,50.85,43.44,70.72,70.72,85.2-5.26,173.32-7,257-6.8,12.24-10.43,24.19-21.14,39.44-28.56,5.47,0.43,5.38,6.4,12.24,5.44,14.53-9.95,29.88-19.08,39.44-34-6.49-5.3-10-13.54-16.32-19-15.08,2.94-20.57,12.71-35.36,13.6-32.7,2-45.91-19.09-61.2-34-6.88-6.71-16.49-10.56-20.4-15-10.08-11.34-14.91-26.32-24.48-34,3.9-8.5,8.25-23.26,8.16-31.28-8.72,1-13.82-1.59-21.76-1.36C3068.26,2911.47,3063.54,2892.61,3053.45,2879.13ZM1830.86,3094c-52,.11-98.94,5.33-149.6,6.8-0.72,56.89,5.28,124.84,2.72,183.59,53.12-.61,107.13-1.82,163.19-2.72,55.65-.89,113.87-7.6,167.27-1.36,5.16-3.44,8.59-3.49,15-4.08,55.11-5.13,119.47,2.87,175.43-2.72-6.66-18.32-20.58-31.18-28.56-53-17-46.54-.19-114-5.44-168.63-63.63-.7-137.16,2.72-201.27,2.72-23.13,0-48.28,4.67-66.64,0-10.26-2.61-23.83-13.75-35.36-20.4-13.91-8-28.21-16.86-36.72-21.76C1830.57,3039.1,1831.27,3071.67,1830.86,3094ZM2179,3051.84c7.53,60-13.9,120.44,4.08,167.27,7.56,19.69,22.83,39.23,34,57.12,12.24,19.6,25.12,38.06,36.72,55.76,4.08-1.81,10.4-1.38,16.32-1.36,0.14-7.56-1.08-16.49,2.72-20.4,51.44-.11,108.63-6.28,153.68,1.36-1.65,12.41-6.13,22-8.16,34,9.29-1.14,11.11-9.74,21.76-9.52,3.63,1.35-1.8,11.78,4.08,10.88,24.5-1.34,54.64,3,74.8-2.72-3.28-30.69-5.6-64.55-4.08-97.91,0.79-17.41,5.46-36.77-4.08-50.32-7.6,2.91-21.86,4.23-34,1.36,0.53-47.9-9.33-77.55-8.16-130.55-11.74-.39-23.75,3.84-32.64-1.36-2.09-4.71-1.2-12.39-1.36-19C2347.69,3048,2267,3052.11,2179,3051.84Zm646,63.92c-2.84,2.15-7.15,2.82-12.24,2.72,1.83,29.3-11.05,64.46-5.44,97.91,2.77,16.48,15.93,30.73,19,44.88,79.2,1.37,154.14-1.54,220.31-2.72-45.76-48.08-97.61-90.07-142.79-138.71-4.91-2.21-6.58.23-10.88-1.36q0-4.76,0-9.52c-18.83-14.71-35.91-31.18-53-47.6-8.18,2.43-10.86-.82-19-1.36C2819.83,3075.89,2828.7,3097.53,2825,3115.76Zm397.1-34c-2.85,4.86-10.75,4.66-15,8.16-5.47-.42-5.39-6.4-12.24-5.44-12.47,4.81-22.95,24.45-36.72,27.2-9.79,2-25.27-.56-38.08,0-76.19,3.35-141.09,1.82-208.07,4.08q128.84,128.19,262.47,251.59c17,14.33,24.5,38.06,53,40.8,1.26-37.72,16.35-61.62,46.24-70.71,4.15-17.45-9.94-33.26-1.36-42.16,8.39,7.48,9.77,22,15,32.64,19.51-8.6,35.27-20.95,54.4-29.92-2.92-22.47-6.43-44.35-8.16-68-11.34-.88-24.87-1.36-42.16-1.36-13.35,0-36.13,6.82-34-9.52,24.43-2.32,51.38-2.11,73.44-6.8-1.61-21.07-4.1-41.24-4.08-63.92-28.49-16.84-58.86-31.8-95.2-40.8C3228,3099.45,3229.12,3086.52,3222.09,3081.76Zm-1580.26,13.6c0.44,5-1.16,12,1.36,15h20.4c0.69-4.07,1.41-10.57-1.36-16.32C1658.11,3097.14,1648.2,3094.48,1641.83,3095.36Zm839.09,29.92c2,20,2.51,40.74,2.72,65.28,7.48,0.46,15.6-1,21.76-5.44,26.19,3.37,13.72,28.79,20.4,57.12,3.14,13.32,12.16,18.37,9.52,32.64,20.69,20.11,33.14,48.45,54.4,68,34.94-5.52,64.87,3.23,88.4,16.32,4.88,13.24,14.46,21.81,31.28,23.12,7.43,15.23,22.76,22.58,38.08,29.92-1.27-7.21,5.15-9.77,8.16-12.24,0.75-14.58,5.19-26.85,0-38.08,9.55-17.65,1.91-52.49,19-62.56,1.62-12.89,2.73-26.28,8.16-35.36,10.2-1.59,22.05-1.52,34-1.36-2-16.51-15.18-30.07-17.68-47.6-4.67-32.67,7.15-65,5.44-97.92C2693.22,3119.81,2591.39,3120.62,2480.92,3125.28Zm47.6,456.94c-22.11,2.37-47.95,1-72.08,1.36-0.7,75.5,3,146.57,2.72,221.67,74.66-1.46,155.21-.89,233.91-1.36,20.36-127.43,43.07-252.5,65.28-378.06-21.94-8.43-42.58-18.17-54.4-36.72-18.73-1.67-26.47-14.32-35.36-25.84-24-14.83-52.23-14.24-84.32-13.6-21.31-22.21-36.4-50.63-57.12-73.44,0.3-8,.06-15.47-4.08-19C2528,3368.73,2529.33,3474.43,2528.52,3582.22Zm548.06-295.11c-7.08-6.58-15-18.2-21.76-20.4-8.22-2.7-13.42,2.63-21.76,2.72-6.28.07-12.77-3.93-19-4.08-22.71-.55-48.11,3.63-73.44,5.44-12.46.89-24.19-2.64-36.72-2.72-24.94-.15-49.63,2.29-73.44,1.36,1.5,12.25,11,21.5,16.32,32.64,16.76,34.88,29.56,69.18,43.52,103.36,59-.39,115-3.81,170-8.16,3.56,4.41-.8,11.48,1.36,15,50.59-.71,87.09-1.45,141.43-2.72C3164.57,3370.06,3117.52,3325.15,3076.57,3287.11Zm-289.67-15c-2.7,10-3.07,22.31-5.44,32.64-0.83,4.16-6.52,3.46-8.16,6.8-12.22,39.16,2,76.08-17.68,106.07,43.21,0.58,90-2.47,129.2-1.36-18.59-52.13-38.64-102.8-66.64-145.51A188.94,188.94,0,0,0,2786.9,3272.15Zm-442,310.07c-16.27-29.66-25.9-62.74-39.44-95.2-20.92-50.12-37.52-101.08-57.12-151-15-16.24-23.92-38.64-39.44-54.4-23-.76-42,2.4-65.28,1.36-1,78.07,5.71,155.66,4.08,229.83-25.07.78-53.31-1.63-76.16,1.36-0.86,22.68,4.07,46.62,0,68a263.56,263.56,0,0,0-36.72-1.36c2.13,25.07-.06,54.46,2.72,78.88,54.49-.37,110.25.55,159.12-5.44,38.82,7.1,86.07.26,126.47,0C2330.69,3630.54,2335.26,3603.83,2344.92,3582.22Zm-66.64-263.83c-0.63,6.63,1.42,15.93-1.36,20.4-6.37.88-16.28-1.78-20.4,1.36,35.29,78,60.5,166.16,97.92,242.07-11.92,19.82-14.95,48.52-23.12,72.08,40,0.15,80,.24,118.31-1.36-0.46-24.07-3.44-52.71,0-76.16,24.06-.87,52.1,2.24,72.08-2.72-3.44-73.33-.39-145.09-2.72-220.31-29.55.18-56.07,0-81.6,1.36-3.47-.15-2.7-4.55-2.72-8.16-8.89,1.31-13.79,13.09-24.48,8.16-1.76-11.9,5-26.59,6.8-39.44C2368,3317.71,2325.1,3314.64,2278.29,3318.39ZM3377.12,3468c2.74-9.74-9.59-25.21-5.44-42.16,2.1-8.55,7.63-13.07,6.8-23.12-16.38-25.32-26-57.46-42.16-83-28.43,18.71-63.15,31.14-87,54.4,8.7,6.86,22.69,16,10.88,28.56-6.43.54-11.35-.44-16.32-1.36-4.73,9.17,2.6,18.08,2.72,27.2s-7.19,15.19-8.16,24.48c-0.7,6.7,3,19,4.08,28.56,2,18.94,5.73,35.56,4.08,57.12-5.32,14.57-23.82,22.74-28.56,39.44-3.23,11.37,1.12,24.49-2.72,39.44,5.56,0.33,13.11-1.32,15,2.72-10.29,18.07-8.16,48.41-8.16,83,0,43.07,1.52,85.93,1.36,125.12h29.92c3.5-4.66-1.24-17.56,4.08-20.4,27-.06,45.6-0.19,72.07,0,0.56-25.28.61-51.07,2.72-74.8,13.33,0.27,28.1-.9,39.44,1.36-0.64-51.56,1.06-98.12-1.36-142.8,4.27-6.15,10.39-10.46,8.16-23.12-9.36-10.14-24.57-14.42-28.56-29.92,4-5,8.52-9.62,10.88-16.32a183.94,183.94,0,0,1-15-29.92C3352.48,3480.15,3373.48,3480.92,3377.12,3468Zm-114.24-114.24c3.61-2.38,15-7.77,8.16-6.8-7.32,1-20.19,10.7-23.12,17.68C3250.16,3361.51,3257.25,3357.47,3262.89,3353.75ZM3237,3395.91c4.28-7,16.92,3.4,20.4-2.72-2.93-7.95-11.27-10.49-16.32-16.32C3239.62,3382.2,3235.83,3392.37,3237,3395.91Zm-342.71,17.68c12.5,12.28,12.55,25.05,13.6,49,1.73,39.33,5.55,78.75-1.36,114.24-4.33,2.08-6,.48-10.88,0v13.6c-13.52,21-41.59,39.07-55.76,62.56-12.17,20.17-21.24,51.9-32.64,80.24-10.09,25.1-27.61,57.74-31.28,81.59-1.8,11.69.66,30.29,1.36,46.24,0.78,17.75-2.62,38.33,0,51.68,2.4,12.22,14.93,27.49,23.12,39.44,27.22,39.7,51,78.42,76.16,115.59,71.74,9.7,145.71,9,227.11,8.16V3982c9.61-6.26,12.45-19.28,24.48-23.12,16.91,24.16,23.08,55.07,40.8,77.52,12.39,15.69,32.12,22.54,47.6,35.36-1-24.94-14.56-56.89-13.6-84.32,0.66-18.85,11.25-40,13.6-62.56,1.16-11.09-.86-22.66-1.36-34-2.38-54.24-1.36-119.18-1.36-175.43,0-36-4-71.1,6.8-89.76-6.36.47-11.18-.61-13.6-4.08,5.19-17-1.44-29.94,2.72-46.24,4.11-16.13,24.32-25.92,27.2-38.08,10.19-43-12.94-80.37-9.52-119.68-61.58,0-116.57,3.83-171.36,1.36-4.45-1.89.1-12.79-5.44-13.6C3002.09,3411.64,2947.16,3411.56,2894.34,3413.59Zm344.07,20.4c0.2-6.09-.15-11.64-2.72-15C3234.35,3423,3232.12,3433.8,3238.41,3434Zm-471.9-6.8c-21.85,124.57-46,246.81-63.92,375.35,21.59-3.71,46-2.56,69.36-1.36,14.95-37.7,30.24-77.42,44.88-114.24,4.93-12.39,8.84-27.66,15-38.08,14.38-24.49,42.25-37.89,55.76-61.19,0.55-5.8-1.32-14,1.36-17.68,2.62-4.83,11.35,3.53,10.88-2.72,6-44.37,1.19-85.35,0-131.92-2.89-3.91-6.84-6.76-8.16-12.24C2849,3423.52,2808.88,3426.5,2766.5,3427.19Zm-924.76,89.76c1.06,75.87,5.65,150.85,2.72,228.47-47.81,4.32-104.37-.1-151,5.44,2.18,21.84-.09,48.15,2.72,69.36,71.13-2.41,154.54-5.16,220.31-4.08,3.88,11.65-.92,27.33,1.36,38.08,14.21,0.16,28.32.22,39.44-2.72-1.28-9.71-3.79-29.25,1.36-36.72h35.36v-19c1.14-3.4,10.63,1.56,9.52-4.08,1.59-6.83-3-12.33,0-16.32,7.14-3.28,18.07-2.79,28.56-2.72-1.64-63.64-4.71-125.84-4.08-191.75-9.23.75-21.54-1.6-28.56,1.36-6.94-1.5-1.22,9.66-8.16,8.16-24,.87-58.85,4.12-78.88,0-3.1-15-.5-35.76-1.36-53-10.26-.17-7.83-13-9.52-21.76C1880.37,3514.77,1861.79,3516.59,1841.74,3516.94Zm233.91,151c0,25.11,4.2,52.74,2.72,74.8-10.28,3.77-29.24-1.13-39.44,2.72,3.17,19.95.46,45.78,1.36,68,24.44,0,52.52-3.69,76.16,0,1,24.09,5.45,57.5-2.72,74.8,41.75-.79,98.6-3.24,144.15,0,1.78,5.65-7.9,12-1.36,13.6-0.16-23.72,27.22-11.65,44.88-17.68-2.12-22.41-2.36-53.78,0-76.16,48-2.77,100.8-.74,151-1.36-2-47.44-1-97.84-2.72-145.51C2322.67,3665.93,2194.83,3662.38,2075.65,3667.9Zm-39.44,0c3,20.59-.15,47.3,2.72,68h32.64c-1.51-23-1.77-47.19-4.08-69.36C2057.39,3667.31,2044.1,3664.91,2036.21,3667.9ZM3340.4,3740c-5.81,20.48-.07,52.52-4.08,74.8-24.66,3-47.22-.13-73.44,1.36-0.54,7.17,1.76,17.17-2.72,20.4h-36.72c-2.66,35.52,3.61,65.65,0,96.56-2.29,19.61-12.05,38.56-12.24,57.12-0.32,31.7,16,59.91,12.24,93.84-50.08-20.79-76.92-62.48-96.56-112.88-7.85,1.67-8.31,10.73-15,13.6-1,32.51,2.49,69.58-2.72,97.91-77.83,3.11-155.9,3-225.75-6.8,26.22,45.4,61.09,93.95,77.52,153.67,140.52,2.59,271.53,2.46,412.07,1.36,0.14-160.41-.45-321.64,0-486.86C3364.71,3740.15,3353.18,3739.44,3340.4,3740Zm-646,70.72c-22.63,119.71-34.61,250.07-62.56,364.47,10.26,1.07,23.2-.53,28.56,5.44-1.58,22-.51,31.12-1.36,51.68,99.74-1.85,196-.86,293.75-2.72-18.28-63.2-52.86-109.2-85.68-161.83-22.14-35.52-48.69-75.22-73.44-111.52-9-13.2-20.7-27.94-23.12-39.44-7.46-35.56,1.53-69.19-1.36-106.07C2745.31,3805.9,2719.62,3809.52,2694.43,3810.69Zm-386.22,5.44c0.24,51.66.64,94.77,1.36,145.51,51.09,0.77,103.81-4.06,153.67,0,1,25.51,2.19,56.18,1.36,81.6h-40.8c0.58,15.38-1.5,40.81,0,57.12,35-5.3,76.65-4,117-4.08,26.07-15.48,53.75-61,93.84-36.72,3.07,6.44-1.27,20.31,8.16,20.4,14.72-89.1,28.17-179.45,43.52-267.91C2569.94,3811.15,2440.06,3813.27,2308.2,3816.13Z" transform="translate(-117.33 -248.99)"/></g></svg>